<?xml version="1.0" standalone="no"?><!DOCTYPE svg PUBLIC "-//W3C//DTD SVG 1.1//EN" "http://www.w3.org/Graphics/SVG/1.1/DTD/svg11.dtd">
<svg width="41px" height="39px" style="margin-top:10px;" viewBox="0 0 41 39" version="1.1" xmlns="http://www.w3.org/2000/svg" xmlns:xlink="http://www.w3.org/1999/xlink">

                        <g id="Page-1" stroke="none" stroke-width="1" fill="none" fill-rule="evenodd">
                            <g id="tack1" fill="#FFFFFF" fill-rule="nonzero">
                                <path d="M20.4929774,2 C10.277363,2 2,10.2832319 2,20.5 C2,25.4042364 3.924206,29.8532471 7.04226243,33.1665398 L4.47665444,35.7336377 C4.13020372,36.0809234 3.91484246,36.5596144 3.91484246,37.0852359 C3.91484246,38.141172 4.77160572,39 5.82968493,39 C6.35872453,39 6.83626471,38.7841197 7.18271542,38.4415271 L9.94027584,35.6820142 C12.9366064,37.7704211 16.5696571,39 20.4976591,39 C24.4350247,39 28.0727572,37.761035 31.0737695,35.6679351 L33.8547387,38.4462202 C34.1965077,38.7888128 34.6693661,39 35.1937239,39 C36.2377578,39 37.0851575,38.1552511 37.0851575,37.1087012 C37.0851575,36.5877727 36.874478,36.1137747 36.5327091,35.7711821 L33.9436923,33.185312 C37.0711122,29.8720193 39,25.4183156 39,20.504693 C38.9906365,10.2832319 30.7085917,2 20.4929774,2 Z M26.7431355,27.1359716 L26.2140959,27.6662861 C25.7646463,28.1121258 25.0249272,28.130898 24.5567506,27.7132166 L18.456409,22.4523085 C17.9882323,22.0346271 17.6370998,21.1757991 17.6651904,20.5516235 L18.3019107,10.4521816 C18.3300013,9.82800609 18.8684044,9.31177067 19.4957611,9.31177067 L20.2448437,9.31177067 C20.8675187,9.31177067 21.4059218,9.82800609 21.4340124,10.4521816 L21.9536885,18.7213343 C21.9864608,19.3502029 22.3563204,20.2418823 22.7729976,20.7111872 L26.7852714,25.4746322 C27.2066304,25.9439371 27.1879033,26.6901319 26.7431355,27.1359716 Z" id="Shape"></path>
                                <path d="M12.4377781,1.59211524 C11.1305182,0.60045489 9.48468747,2.84217094e-14 7.68838077,2.84217094e-14 C3.44213745,2.84217094e-14 0,3.3206975 0,7.41925701 C0,9.15238817 0.62071331,10.7399545 1.65053312,12 C3.72427986,7.3328279 7.60373805,3.59363154 12.4377781,1.59211524 Z M33.4761974,1.29287533e-15 C31.7175097,1.29287533e-15 30.1092979,0.586808188 28.8255499,1.56027293 C33.5608401,3.51630023 37.3556556,7.18271418 39.387081,11.7543594 C40.3933889,10.5170584 40.9999951,8.96133434 40.9999951,7.26914329 C41.0046975,3.25246399 37.6330956,0 33.4761974,1.29287533e-15 Z" id="Shape"></path>
                            </g>
                        </g>
                    </svg>