<?xml version="1.0" standalone="no"?><!DOCTYPE svg PUBLIC "-//W3C//DTD SVG 1.1//EN" "http://www.w3.org/Graphics/SVG/1.1/DTD/svg11.dtd">
<svg width="131px" height="131px" viewBox="0 0 131 131" version="1.1" xmlns="http://www.w3.org/2000/svg" xmlns:xlink="http://www.w3.org/1999/xlink">
    <!-- Generator: Sketch 49.2 (51160) - http://www.bohemiancoding.com/sketch -->
    <desc>Created with Sketch.</desc>
    <defs></defs>
    <g id="Page-1" stroke="none" stroke-width="1" fill="none" fill-rule="evenodd">
        <g id="Group-2" transform="translate(-58.000000, -22.000000)" fill-rule="nonzero">
            <g id="school_1207032_easyicon.net" transform="translate(58.000000, 22.000000)">
                <path d="M65.4994883,0 C101.674934,0 131,29.3250664 131,65.4994883 C131,101.674934 101.674934,131 65.4994883,131 C29.3250664,131 0,101.674934 0,65.4994883 C0,29.3250664 29.3250664,0 65.4994883,0 Z" id="Shape" fill="#67B2FF"></path>
                <path d="M53.8231971,12.6475165 C54.6053621,12.6475165 55.3433049,12.8455524 55.9967561,13.1982625 C56.7055468,12.4579415 57.6737416,12 58.7424864,12 C60.5933962,12 62.1451266,13.370916 62.5591849,15.2164306 C63.4846398,15.5136166 64.2272766,16.2600189 64.5657372,17.2189991 C64.6764162,17.2068366 64.7893188,17.1996978 64.9032095,17.1996978 C66.6140411,17.1996978 68,18.6840415 68,20.5152786 C68,22.3465156 66.6140411,23.8295373 64.9032095,23.8295373 C64.3705665,23.8295373 63.8695461,23.6857035 63.4315238,23.4321435 C63.0557584,24.8091407 61.8674408,25.8151841 60.4590002,25.8151841 C59.5980257,25.8151841 58.8193194,25.4394712 58.2582655,24.8332011 C57.6974586,25.4394712 56.9187523,25.8151841 56.0575308,25.8151841 C55.2392962,25.8151841 54.4966594,25.4756941 53.9425229,24.9215109 C53.3760339,25.584627 52.561258,26 51.6560614,26 C50.8096629,26 50.042321,25.6364495 49.4825023,25.047101 C49.2275452,25.1073843 48.9612237,25.138848 48.68922,25.138848 C46.6510451,25.138848 45,23.3718602 45,21.1905571 C45,19.010576 46.6510451,17.2422663 48.68922,17.2422663 C48.799899,17.2422663 48.9093428,17.2483475 49.0187867,17.2578659 C49.2809083,14.664627 51.3314357,12.6475165 53.8231971,12.6475165 Z" id="Shape" fill="#FFFFFF"></path>
                <g id="Group" transform="translate(17.000000, 48.000000)" fill="#E54A18">
                    <polygon id="Shape" points="60.1720851 34.8644403 95.9586383 34.8644403 95.9586383 0.0096641791 60.1720851 0.0096641791"></polygon>
                    <polygon id="Shape" points="35.9078298 34.8644403 0.122297872 34.8644403 0.122297872 0.0096641791 35.9078298 0.0096641791"></polygon>
                </g>
                <polygon id="Shape" fill="#606060" points="52 40 17.7224407 40 14 50 52 50"></polygon>
                <polygon id="Shape" fill="#F3F3F3" points="53 83 17 83 17 88 53 88"></polygon>
                <polygon id="Shape" fill="#785448" points="41 64 33 64 33 54 41 54"></polygon>
                <polygon id="Shape" fill="#B9DDF9" points="40 62 33 62 33 54 40 54"></polygon>
                <path d="M34.9203634,54 L37.6646179,62 L40,62 L37.2557456,54 L34.9203634,54 Z M36.3559594,62 L35.1889364,62 L33,55.6183356 L33,54 L33.611705,54 L36.3559594,62 Z" id="Shape" fill="#E1F1FB"></path>
                <polygon id="Shape" fill="#785448" points="28 64 20 64 20 54 28 54"></polygon>
                <polygon id="Shape" fill="#B9DDF9" points="27 62 20 62 20 54 27 54"></polygon>
                <path d="M21.921139,54 L24.6649744,62 L27,62 L24.2548286,54 L21.921139,54 Z M23.355447,62 L22.189671,62 L20,55.6183356 L20,54 L20.6126804,54 L23.355447,62 Z" id="Shape" fill="#E1F1FB"></path>
                <polygon id="Shape" fill="#785448" points="41 77 33 77 33 67 41 67"></polygon>
                <polygon id="Shape" fill="#B9DDF9" points="40 77 33 77 33 69 40 69"></polygon>
                <path d="M34.9203634,69 L37.6646179,77 L40,77 L37.2557456,69 L34.9203634,69 Z M36.3559594,77 L35.1889364,77 L33,70.6183356 L33,69 L33.611705,69 L36.3559594,77 Z" id="Shape" fill="#E1F1FB"></path>
                <polygon id="Shape" fill="#785448" points="28 77 20 77 20 67 28 67"></polygon>
                <polygon id="Shape" fill="#B9DDF9" points="27 77 20 77 20 69 27 69"></polygon>
                <path d="M21.921139,69 L24.6649744,77 L27,77 L24.2548286,69 L21.921139,69 Z M23.355447,77 L22.189671,77 L20,70.6183356 L20,69 L20.6126804,69 L23.355447,77 Z" id="Shape" fill="#E1F1FB"></path>
                <polygon id="Shape" fill="#606060" points="77 40 111.276769 40 115 50 77 50"></polygon>
                <g id="Group" transform="translate(41.000000, 25.000000)">
                    <polygon id="Shape" fill="#F3501E" points="38.2598824 10.7124046 22.0372471 1.8988855 4.58278824 10.7124046 4.58278824 32.9206489 38.2598824 32.9206489"></polygon>
                    <polygon id="Shape" fill="#606060" points="39.7089824 13.2602061 21.9100176 3.70658015 2.96851765 13.0057786 0.0682941176 10.7675725 22.0453412 0.0899312977 42.7743765 11.1013511"></polygon>
                </g>
                <polygon id="Shape" fill="#F3501E" points="50 87 76 87 76 64 50 64"></polygon>
                <g id="Group" transform="translate(45.000000, 64.000000)" fill="#F3F3F3">
                    <polygon id="Shape" points="1.24876866 0.099 8.59850746 0.099 8.59850746 16.36275 1.24876866 16.36275"></polygon>
                    <polygon id="Shape" points="27.5413433 0.099 34.8923881 0.099 34.8923881 16.36275 27.5413433 16.36275"></polygon>
                    <polygon id="Shape" points="0.22619403 22.9625 9.62238806 22.9625 9.62238806 15.94475 0.22619403 15.94475"></polygon>
                </g>
                <path d="M57,87 L69,87 L69,76.0925785 C69,72.7418937 66.2998276,70 63.0001277,70 C59.7004277,70 57.0002553,72.7418937 57.0002553,76.0925785 L57.0002553,87 L57,87 Z" id="Shape" fill="#5C4036"></path>
                <path d="M57,87 L64,87 L64,70.0106305 C63.8727938,70.0046671 63.7427733,70 63.6130342,70 C59.9761187,70 57,72.7418937 57,76.0925785 L57,87 Z" id="Shape" fill="#6C4C40"></path>
                <polygon id="Shape" fill="#F3F3F3" points="77 83 113 83 113 88 77 88"></polygon>
                <polygon id="Shape" fill="#E5E5E5" points="46 64 54 64 54 66 46 66"></polygon>
                <polygon id="Shape" fill="#785448" points="90 64 98 64 98 54 90 54"></polygon>
                <polygon id="Shape" fill="#E5E5E5" points="74 64 82 64 82 66 74 66"></polygon>
                <g id="Group" transform="translate(45.000000, 57.000000)" fill="#F3F3F3">
                    <polygon id="Shape" points="0.245454545 0.178963964 35.8486993 0.178963964 35.8486993 5.55911712 0.245454545 5.55911712"></polygon>
                    <polygon id="Shape" points="26.0632448 28.9608108 35.1196364 28.9608108 35.1196364 21.6269459 26.0632448 21.6269459"></polygon>
                </g>
                <polygon id="Shape" fill="#B9DDF9" points="90 62 97 62 97 54 90 54"></polygon>
                <path d="M95.0792699,54 L92.3344916,62 L90,62 L92.7447783,54 L95.0792699,54 Z M93.6433999,62 L94.8106457,62 L97,55.6183356 L97,54 L96.3881782,54 L93.6433999,62 Z" id="Shape" fill="#E1F1FB"></path>
                <polygon id="Shape" fill="#785448" points="101 64 109 64 109 54 101 54"></polygon>
                <polygon id="Shape" fill="#B9DDF9" points="101 62 108 62 108 54 101 54"></polygon>
                <path d="M107.0783,54 L104.334046,62 L102,62 L104.744254,54 L107.0783,54 Z M105.642704,62 L106.811064,62 L109,55.6183356 L109,54 L108.387226,54 L105.642704,62 Z" id="Shape" fill="#E1F1FB"></path>
                <polygon id="Shape" fill="#785448" points="90 77 98 77 98 67 90 67"></polygon>
                <polygon id="Shape" fill="#B9DDF9" points="90 77 97 77 97 69 90 69"></polygon>
                <path d="M95.0792699,69 L92.3344916,77 L90,77 L92.7447783,69 L95.0792699,69 Z M93.6433999,77 L94.8106457,77 L97,70.6183356 L97,69 L96.3881782,69 L93.6433999,77 Z" id="Shape" fill="#E1F1FB"></path>
                <polygon id="Shape" fill="#785448" points="101 77 109 77 109 67 101 67"></polygon>
                <polygon id="Shape" fill="#B9DDF9" points="101 77 108 77 108 69 101 69"></polygon>
                <path d="M107.0783,69 L104.334046,77 L102,77 L104.744254,69 L107.0783,69 Z M105.642704,77 L106.811064,77 L109,70.6183356 L109,69 L108.387226,69 L105.642704,77 Z" id="Shape" fill="#E1F1FB"></path>
                <polygon id="Shape" fill="#785448" points="51 55 56 55 56 45 51 45"></polygon>
                <polygon id="Shape" fill="#B9DDF9" points="51 53 56 53 56 45 51 45"></polygon>
                <path d="M54.6279962,45 L52.6678716,53 L51,53 L52.9601246,45 L54.6279962,45 Z M53.6030254,53 L54.4364051,53 L56,46.6183356 L56,45 L55.56315,45 L53.6030254,53 Z" id="Shape" fill="#E1F1FB"></path>
                <polygon id="Shape" fill="#785448" points="60 55 65 55 65 45 60 45"></polygon>
                <polygon id="Shape" fill="#B9DDF9" points="61 53 66 53 66 45 61 45"></polygon>
                <path d="M64.6269877,45 L62.667408,53 L61,53 L62.9606916,45 L64.6269877,45 Z M63.6023018,53 L64.4354498,53 L66,46.6183356 L66,45 L65.5618815,45 L63.6023018,53 Z" id="Shape" fill="#E1F1FB"></path>
                <polygon id="Shape" fill="#785448" points="71 55 76 55 76 45 71 45"></polygon>
                <polygon id="Shape" fill="#B9DDF9" points="72 53 77 53 77 45 72 45"></polygon>
                <path d="M75.6279962,45 L73.6678716,53 L72,53 L73.9612369,45 L75.6279962,45 Z M74.6030254,53 L75.4364051,53 L77,46.6183356 L77,45 L76.56315,45 L74.6030254,53 Z" id="Shape" fill="#E1F1FB"></path>
                <path d="M53.9131788,36 L73.0868212,36 C74.1394729,36 75,36.9516296 75,38.1163439 L75,40.8836561 C75,42.0480915 74.1397251,43 73.0868212,43 L53.9131788,43 C52.8615356,43 52,42.0483704 52,40.8836561 L52,38.1163439 C52,36.9519085 52.8615356,36 53.9131788,36 Z" id="Shape" fill="#747474"></path>
                <path d="M56.5986328,36 L74.4013672,36 C75.8317999,36 77,37.1251554 77,38.5 C77,39.8748446 75.8315306,41 74.4013672,41 L56.5986328,41 C55.1695463,41 54,39.8748446 54,38.5 C54,37.1251554 55.1695463,36 56.5986328,36 Z" id="Shape" fill="#FFD34E"></path>
                <path d="M65.0010363,17 C65.5523316,17 66,17.4481308 66,18.0009346 C66,18.5518692 65.5528497,19 65.0010363,19 C64.4471503,19 64,18.5518692 64,18.0009346 C64,17.4481308 64.4471503,17 65.0010363,17 Z" id="Shape" fill="#BBBBBB"></path>
                <path d="M57.736054,38.3778576 C57.7210639,38.3962512 57.7035331,38.4106157 57.6862565,38.4186739 C57.6687257,38.4274328 57.6468757,38.4314619 57.6201985,38.4314619 C57.5935212,38.4314619 57.563287,38.4242796 57.5320365,38.4106157 C57.4995157,38.3962512 57.4611513,38.3810108 57.415927,38.3641937 C57.3717189,38.346676 57.3206511,38.3314356 57.2604367,38.3177717 C57.2012386,38.3034072 57.1303533,38.2969256 57.0493053,38.2969256 C56.9761334,38.2969256 56.912362,38.3025313 56.8577372,38.3146186 C56.8020961,38.3267058 56.7568718,38.3433476 56.7195236,38.3650696 C56.6811592,38.3866164 56.6534657,38.4130682 56.6349186,38.4426732 C56.6173879,38.4731541 56.6082414,38.5066129 56.6082414,38.5426995 C56.6082414,38.5891215 56.6280588,38.6274853 56.6638825,38.6570903 C56.7022469,38.6882719 56.7510282,38.7147237 56.8125129,38.7362705 C56.8739976,38.7578173 56.9436125,38.7770868 57.022628,38.7939038 C57.1003732,38.8115967 57.1816753,38.8299904 57.2629774,38.8490847 C57.3465661,38.8683542 57.4265979,38.8907769 57.504343,38.9163528 C57.5833585,38.9419287 57.6529734,38.9746869 57.7154744,39.0139266 C57.7769591,39.0531663 57.8257404,39.1011649 57.8628345,39.1579224 C57.8999285,39.2146799 57.9184756,39.2835246 57.9184756,39.3651572 C57.9184756,39.4532714 57.8963716,39.5364807 57.8534339,39.6132084 C57.8092259,39.6901112 57.7454545,39.7572042 57.6608495,39.8148375 C57.5772608,39.871595 57.4728384,39.9164404 57.3521556,39.9500745 C57.2302025,39.9828326 57.0899563,39.9996496 56.934212,39.9996496 C56.8437634,39.9996496 56.7556014,39.9931681 56.6661691,39.981256 C56.5790234,39.9691688 56.4954347,39.951651 56.4154029,39.9285276 C56.3341008,39.9061049 56.2586423,39.8796531 56.1880111,39.8477709 C56.1183962,39.8165893 56.0546249,39.7813786 56,39.7421389 L56.1554903,39.5685381 C56.1681937,39.5557502 56.1844541,39.5445388 56.2052878,39.5364807 C56.2261215,39.5277218 56.2494958,39.5228169 56.2726161,39.5228169 C56.3061532,39.5228169 56.3412148,39.5324516 56.3783089,39.5508452 C56.4166733,39.5692389 56.4618976,39.590085 56.5139817,39.6125077 C56.56632,39.6349304 56.6278047,39.6557765 56.6974196,39.6741701 C56.7683049,39.6925637 56.8518936,39.7021985 56.9492021,39.7021985 C57.0988487,39.7021985 57.2162287,39.6773233 57.298547,39.6277481 C57.3808654,39.5788736 57.4215165,39.5084523 57.4215165,39.4164842 C57.4215165,39.3653324 57.4039857,39.3229395 57.3668916,39.290882 C57.3297975,39.2588246 57.2787297,39.2307962 57.2182612,39.2083735 C57.1567765,39.1859508 57.0871616,39.1675572 57.0081461,39.1531926 C56.930401,39.1372515 56.8490988,39.1211351 56.7690671,39.1027415 C56.687765,39.0843479 56.6077332,39.0628011 56.5299881,39.0379259 C56.4509726,39.01235 56.3813577,38.9795918 56.319873,38.9387755 C56.2571179,38.8988351 56.2083366,38.8475081 56.1712426,38.7867216 C56.1341485,38.725935 56.1156014,38.6506087 56.1156014,38.5617938 C56.1156014,38.4904966 56.1364351,38.4209512 56.1770861,38.3529824 C56.2187535,38.2857143 56.2779516,38.2258036 56.3569671,38.1737759 C56.4347122,38.1210476 56.5322747,38.0793553 56.6471139,38.0472979 C56.7619532,38.0161163 56.8943231,38 57.0429536,38 C57.2111473,38 57.3656213,38.0183936 57.5071378,38.0544802 C57.647638,38.0905667 57.7683208,38.1408426 57.8668996,38.2056582 L57.736054,38.3778576 Z M60.3252719,39.5165105 C60.3542358,39.5165105 60.3798968,39.5236927 60.4030171,39.5396339 L60.6108456,39.694841 C60.494736,39.7932907 60.3542358,39.8684418 60.1860421,39.9204695 C60.0178484,39.9731979 59.8158634,39.9996496 59.5800873,39.9996496 C59.3699722,39.9996496 59.1809448,39.9747745 59.012497,39.9244986 C58.8443033,39.8756241 58.7002461,39.8060787 58.5818499,39.7179644 C58.4621834,39.6291495 58.3717348,39.5235176 58.3079635,39.4010686 C58.2441921,39.2786196 58.2126876,39.1449593 58.2126876,38.9993869 C58.2126876,38.8529386 58.2462247,38.7177017 58.3148233,38.5961286 C58.3821516,38.4736796 58.4784438,38.3680476 58.6026836,38.2801086 C58.7269234,38.1919944 58.8730131,38.122449 59.0447638,38.0735745 C59.2154982,38.0247 59.405796,38 59.6133704,38 C59.8199285,38 60.0033664,38.0231234 60.1634299,38.0704213 C60.3234934,38.1168433 60.4604367,38.1785057 60.5732434,38.2545327 L60.3969194,38.4234037 C60.3852322,38.434615 60.3725288,38.4442498 60.3562684,38.4521328 C60.3400079,38.4601909 60.3168877,38.46422 60.2876697,38.46422 C60.2691227,38.46422 60.248289,38.4601909 60.2272013,38.4521328 C60.2063676,38.4449505 60.1829933,38.4353158 60.1586026,38.4241044 C60.1331957,38.4128931 60.1052481,38.4001051 60.0714569,38.3864413 C60.0389361,38.3736533 60.001842,38.3608654 59.9589043,38.349654 C59.9146963,38.3384427 59.8648988,38.3288079 59.8092576,38.3209249 C59.7513299,38.3137427 59.6850179,38.3105895 59.6108297,38.3105895 C59.4843033,38.3105895 59.3681937,38.324954 59.2627551,38.3561356 C59.1583327,38.3873172 59.0666137,38.4321626 58.9911552,38.4913725 C58.9156967,38.5505825 58.8564986,38.6225804 58.8148313,38.7082421 C58.773164,38.7930279 58.7520762,38.8907769 58.7520762,38.9995621 C58.7520762,39.1099238 58.7751965,39.2076728 58.8194045,39.2931593 C58.8646288,39.3788211 58.9261135,39.4515197 59.0028424,39.509153 C59.0805875,39.568363 59.1710361,39.6132084 59.2757126,39.6435141 C59.3814053,39.6755715 59.4926876,39.6915127 59.6133704,39.6915127 C59.6852719,39.6915127 59.7503136,39.6883595 59.8095117,39.6827538 C59.8664232,39.678024 59.9197777,39.66909 59.9695752,39.6571779 C60.0183565,39.6450907 60.0648511,39.6300254 60.1088051,39.6116318 C60.1530131,39.5932382 60.1959508,39.5708155 60.2388884,39.543663 C60.2515919,39.5356048 60.2655657,39.5292984 60.2805558,39.5236927 C60.2952918,39.5189629 60.3102819,39.5165105 60.3252719,39.5165105 Z M63.3649543,38.021722 L63.3649543,39.978278 L62.8357285,39.978278 L62.8357285,39.1228869 L61.5033902,39.1228869 L61.5033902,39.978278 L60.972894,39.978278 L60.972894,38.021722 L61.5033902,38.021722 L61.5033902,38.8636244 L62.8357285,38.8636244 L62.8357285,38.021722 L63.3649543,38.021722 Z M66.7029139,38.9995621 C66.7029139,39.1435579 66.6681064,39.2756416 66.5995077,39.3980906 C66.5309091,39.5196637 66.4336006,39.6261715 66.3080905,39.7158623 C66.1815641,39.8046772 66.0306471,39.8742227 65.8543231,39.923973 C65.6779992,39.9744241 65.4818579,40 65.2658992,40 C65.0522271,40 64.8560857,39.9744241 64.6797618,39.923973 C64.5021675,39.8743978 64.3512505,39.8046772 64.2259944,39.7158623 C64.099468,39.6261715 64.0008892,39.5198388 63.9322906,39.3980906 C63.8626757,39.2756416 63.8278682,39.1435579 63.8278682,38.9995621 C63.8278682,38.856267 63.8626757,38.7234825 63.9322906,38.6010335 C64.0008892,38.4794605 64.099468,38.3738285 64.2259944,38.2841377 C64.3512505,38.1953228 64.5021675,38.1249015 64.6797618,38.0753263 C64.8560857,38.0248752 65.0522271,38.0001752 65.2658992,38.0001752 C65.4097023,38.0001752 65.5443589,38.0113865 65.6721556,38.0345099 C65.798682,38.0576334 65.9158079,38.0896908 66.0215006,38.1320837 C66.1271933,38.1737759 66.2234855,38.2240519 66.3070742,38.2850136 C66.3916792,38.3442235 66.4625645,38.4121923 66.5217626,38.485942 C66.5809607,38.5595165 66.626185,38.6395726 66.6564192,38.7268109 C66.6879238,38.8131733 66.7029139,38.9042656 66.7029139,38.9995621 Z M66.1622549,38.9995621 C66.1622549,38.8923535 66.1414212,38.7963563 66.1007701,38.7106946 C66.0591028,38.6259087 65.9986344,38.5539108 65.9221596,38.493825 C65.8444145,38.434615 65.7514252,38.3890689 65.6414133,38.3570115 C65.5298769,38.3258299 65.4046209,38.3105895 65.2664073,38.3105895 C65.1281937,38.3105895 65.0029377,38.3258299 64.893942,38.3570115 C64.7824057,38.3890689 64.6884002,38.434615 64.610655,38.493825 C64.5329099,38.5539108 64.4724414,38.6259087 64.4307741,38.7106946 C64.3891068,38.7963563 64.3680191,38.8923535 64.3680191,38.9995621 C64.3680191,39.1076465 64.3888527,39.2027678 64.4307741,39.2884295 C64.4724414,39.3740913 64.5329099,39.4460892 64.610655,39.5044232 C64.6884002,39.5645091 64.7824057,39.6091793 64.893942,39.640536 C65.0029377,39.6725935 65.1284478,39.6885346 65.2664073,39.6885346 C65.4046209,39.6885346 65.5298769,39.6725935 65.6414133,39.640536 C65.7516792,39.6093545 65.8444145,39.5645091 65.9221596,39.5044232 C65.9988884,39.4460892 66.0591028,39.3739161 66.1007701,39.2884295 C66.1411671,39.2027678 66.1622549,39.1076465 66.1622549,38.9995621 Z M69.8726796,38.9995621 C69.8726796,39.1435579 69.8391425,39.2756416 69.7705439,39.3980906 C69.7019452,39.5196637 69.6046368,39.6261715 69.4791266,39.7158623 C69.3538706,39.8046772 69.2016832,39.8742227 69.0253593,39.923973 C68.8490353,39.9744241 68.652894,40 68.4369353,40 C68.2222469,40 68.0261056,39.9744241 67.8497817,39.923973 C67.674474,39.8743978 67.5225407,39.8046772 67.3960143,39.7158623 C67.2707582,39.6261715 67.1719254,39.5198388 67.1023104,39.3980906 C67.0337118,39.2756416 66.9989043,39.1435579 66.9989043,38.9995621 C66.9989043,38.856267 67.0337118,38.7234825 67.1023104,38.6010335 C67.1719254,38.4794605 67.2705042,38.3738285 67.3960143,38.2841377 C67.5225407,38.1953228 67.674474,38.1249015 67.8497817,38.0753263 C68.0261056,38.0248752 68.2222469,38.0001752 68.4369353,38.0001752 C68.5807384,38.0001752 68.7166653,38.0113865 68.8431917,38.0345099 C68.9697181,38.0576334 69.0858277,38.0896908 69.1925367,38.1320837 C69.2982295,38.1737759 69.3932513,38.2240519 69.4781104,38.2850136 C69.5627154,38.3442235 69.6336006,38.4121923 69.6927987,38.485942 C69.7519968,38.5595165 69.7962048,38.6395726 69.826185,38.7268109 C69.8574355,38.8131733 69.8726796,38.9042656 69.8726796,38.9995621 Z M69.3340532,38.9995621 C69.3340532,38.8923535 69.3132195,38.7963563 69.2712981,38.7106946 C69.2283605,38.6259087 69.1691624,38.5539108 69.0926876,38.493825 C69.0149424,38.434615 68.9209369,38.3890689 68.8106709,38.3570115 C68.7004049,38.3258299 68.5751489,38.3105895 68.4369353,38.3105895 C68.2977054,38.3105895 68.1734657,38.3258299 68.0631997,38.3570115 C67.9529337,38.3890689 67.8589281,38.434615 67.781183,38.493825 C67.7034379,38.5539108 67.6429694,38.6259087 67.6013021,38.7106946 C67.5583644,38.7963563 67.5375308,38.8923535 67.5375308,38.9995621 C67.5375308,39.1076465 67.5583644,39.2027678 67.6013021,39.2884295 C67.6429694,39.3740913 67.7034379,39.4460892 67.781183,39.5044232 C67.8589281,39.5645091 67.9529337,39.6091793 68.0631997,39.640536 C68.1734657,39.6725935 68.2977054,39.6885346 68.4369353,39.6885346 C68.5751489,39.6885346 68.7004049,39.6725935 68.8106709,39.640536 C68.9209369,39.6093545 69.0149424,39.5645091 69.0926876,39.5044232 C69.1691624,39.4460892 69.2283605,39.3739161 69.2712981,39.2884295 C69.3132195,39.2027678 69.3340532,39.1076465 69.3340532,38.9995621 Z M72,39.6781992 L72,39.978278 L70.3378801,39.978278 L70.3378801,38.021722 L70.8658356,38.021722 L70.8658356,39.6781992 L72,39.6781992 Z" id="Shape" fill="#FFFFFF"></path>
                <path d="M58.5817725,60 L69.4182275,60 C70.2876819,60 71,60.8999922 71,61.9992169 L71,62.0007831 C71,63.0996946 70.2879298,64 69.4182275,64 L58.5817725,64 C57.7123181,64 57,63.1000078 57,62.0007831 L57,61.9992169 C57,60.8999922 57.7123181,60 58.5817725,60 Z" id="Shape" fill="#747474"></path>
                <polygon id="Shape" fill="#E5E5E5" points="64 17 66 17 66 25 64 25"></polygon>
                <polygon id="Shape" fill="#FF3C00" points="64 19 64 23 67.7059264 21.9140988 67.0901441 21.4274519 71 22.4436582 67.7423691 19.7492962 67.8858936 20.4124629"></polygon>
                <path d="M2,85 L128,85 C127.645586,86.3497004 127.260866,87.6836183 126.843273,89 L3.1567267,89 C2.73913398,87.6836183 2.35441449,86.3499927 2,85 Z" id="Shape" fill="#BBBBBB"></path>
                <path d="M18.5988447,111 L114.401155,111 C120.319715,104.418881 124.983001,96.6175104 128,88 L5,88 C8.01699944,96.6177743 12.680285,104.418881 18.5988447,111 Z" id="Shape" fill="#606060"></path>
                <g id="Group" transform="translate(8.000000, 98.000000)" fill="#FFFFFF">
                    <path d="M0.776689189,1.84244444 L15.0718784,1.84244444 L15.0718784,0.221333333 L0.162013514,0.221333333 L0.162013514,0.961333333 C0.363824324,1.25688889 0.567945946,1.55022222 0.776689189,1.84244444 Z" id="Shape"></path>
                    <polygon id="Shape" points="18.799473 1.84244444 33.7080541 1.84244444 33.7080541 0.221333333 18.799473 0.221333333"></polygon>
                    <polygon id="Shape" points="37.4356486 1.84244444 52.3442297 1.84244444 52.3442297 0.221333333 37.4356486 0.221333333"></polygon>
                    <polygon id="Shape" points="56.0718243 1.84244444 70.9804054 1.84244444 70.9804054 0.221333333 56.0718243 0.221333333"></polygon>
                    <polygon id="Shape" points="74.708 1.84244444 89.6178649 1.84244444 89.6178649 0.221333333 74.708 0.221333333"></polygon>
                    <path d="M107.079892,1.84244444 L112.709797,1.84244444 C113.092108,1.30755556 113.465176,0.767333333 113.826432,0.221333333 L107.079892,0.221333333 L107.079892,1.84244444 Z" id="Shape"></path>
                </g>
                <path d="M113,110 L17,110 C28.9641715,122.915493 46.0395393,131 64.9994882,131 C83.9604607,131 101.035829,122.915493 113,110 Z" id="Shape" fill="#7CB142"></path>
                <path d="M103.823045,23.6472521 C104.605218,23.6472521 105.343169,23.845288 105.996627,24.1993201 C106.70419,23.4576771 107.673631,23 108.742387,23 C110.593317,23 112.145064,24.370916 112.559127,26.2164306 C113.484591,26.5136166 114.227236,27.2600189 114.564712,28.2203211 C114.676381,28.207101 114.789284,28.2010198 114.903176,28.2010198 C116.613038,28.2010198 118,29.6853636 118,31.5152786 C118,33.3462512 116.613038,34.8295373 114.903176,34.8295373 C114.370528,34.8295373 113.869502,34.6857035 113.431475,34.4321435 C113.055705,35.8101983 111.867375,36.8151841 110.458919,36.8151841 C109.597935,36.8151841 108.819221,36.4407932 108.258161,35.8332011 C107.697348,36.4407932 106.917398,36.8151841 106.057402,36.8151841 C105.239159,36.8151841 104.495526,36.4756941 103.941384,35.9215109 C103.375877,36.584627 102.561092,37 101.656133,37 C100.80849,37 100.04114,36.6364495 99.4825505,36.047101 C99.2263553,36.1073843 98.9612662,36.138848 98.6892596,36.138848 C96.6510629,36.138848 95,34.3718602 95,32.1905571 C95,30.010576 96.6510629,28.2422663 98.6892596,28.2422663 C98.7999398,28.2422663 98.9093848,28.2483475 99.0188298,28.2578659 C99.2804602,25.6654202 101.331257,23.6472521 103.823045,23.6472521 Z" id="Shape" fill="#FFFFFF"></path>
                <path d="M95,17 C98.8662369,17 102,20.1334625 102,23.9993286 C102,27.8651946 98.8662369,31 95,31 C91.1337631,31 88,27.8651946 88,23.9993286 C88,20.1334625 91.1337631,17 95,17 Z" id="Shape" fill="#FFFF00"></path>
                <g id="Group" transform="translate(2.000000, 62.000000)">
                    <path d="M15.3378697,14.4159794 C15.3684073,14.5373711 15.2606273,14.6409794 15.2264969,14.6703608 C15.4305092,14.5054124 15.5277678,14.7069588 15.5277678,14.7069588 C15.8277556,14.7551546 15.5126273,14.9930412 15.5126273,14.9930412 C15.4048473,15.0365979 15.3345336,14.9201031 15.3345336,14.9201031 C15.0602077,15.0554124 15.213666,15.1342784 15.213666,15.1342784 C15.4187047,15.0871134 15.2968106,15.2639175 15.2968106,15.2639175 L15.1713238,15.282732 L15.0212016,15.3639175 L15.0294134,15.4170103 L15.1430957,15.4028351 L15.1549002,15.4912371 L15.0201752,15.5525773 L15.0612342,15.653866 C15.2146925,15.8739691 14.6978615,15.9811856 14.6978615,15.9811856 C14.6147169,16.6440722 13.9980611,16.4051546 13.852558,16.3402062 C13.7434949,16.393299 13.6251935,16.4296392 13.4997067,16.446134 C13.1832953,16.4896907 12.8830509,16.4072165 12.6428554,16.2365979 C12.461169,16.2731959 12.2630591,16.2201031 12.2630591,16.2201031 C12.0531446,16.2425258 12.1365458,15.9340206 12.1365458,15.9340206 C11.9723096,16.2765464 11.7333971,15.9798969 11.7333971,15.9798969 C11.503723,15.7350515 11.7803585,15.5889175 11.7803585,15.5889175 C11.647943,15.4381443 11.8296293,15.3170103 11.8296293,15.3170103 C11.4813971,15.2510309 11.4005621,15.0698454 11.3854216,14.9590206 C11.237609,14.9131443 11.116998,14.8623711 11.0443747,14.8293814 C10.774668,14.9590206 10.4805825,15.0494845 10.1698167,15.0930412 C9.39251731,15.2002577 8.6457556,14.9963918 8.05270876,14.575 C7.60131568,14.664433 7.11245621,14.5373711 7.11245621,14.5373711 C6.58972301,14.5904639 6.79707128,13.825 6.79707128,13.825 C6.51684318,14.4113402 6.1498778,14.2440722 5.94843177,14.0840206 C5.98589817,14.2641753 5.55683096,14.3536082 5.55683096,14.3536082 C5.47599593,15.0164948 4.85934012,14.7775773 4.71409369,14.7115979 C4.60631365,14.7634021 4.48441955,14.8 4.35893279,14.8175258 C4.04585743,14.8610825 3.74458656,14.7775773 3.50310794,14.6090206 C3.32142159,14.6456186 3.12331161,14.5925258 3.12331161,14.5925258 C2.91339715,14.6149485 2.99782485,14.3041237 2.99782485,14.3041237 C2.83358859,14.6489691 2.59210998,14.3512887 2.59210998,14.3512887 C2.36474542,14.1064433 2.64240733,13.9628866 2.64240733,13.9628866 C2.50870876,13.8097938 2.68936864,13.6873711 2.68936864,13.6873711 C2.17228106,13.5884021 2.2451609,13.2376289 2.2451609,13.2376289 C2.00727495,12.9280928 2.24156823,12.6618557 2.24156823,12.6618557 C2.2076945,12.6347938 2.18536864,12.607732 2.16997149,12.581701 C1.87691242,12.6074742 1.59796741,12.5262887 1.3739389,12.3662371 C1.19096945,12.4015464 0.991832994,12.3484536 0.991832994,12.3484536 C0.779608961,12.3719072 0.863010183,12.0600515 0.863010183,12.0600515 C0.698773931,12.4074742 0.457295316,12.1072165 0.457295316,12.1072165 C0.226338086,11.8610825 0.505283096,11.7152062 0.505283096,11.7152062 C0.372867617,11.5634021 0.555580448,11.4386598 0.555580448,11.4386598 C0.0328472505,11.3409794 0.107780041,10.9876289 0.107780041,10.9876289 C-0.131389002,10.6744845 0.104187373,10.4072165 0.104187373,10.4072165 C-0.103417515,10.2389175 0.0854541752,10.0693299 0.0854541752,10.0693299 C0.0197596741,9.86340206 0.310509165,9.87036082 0.310509165,9.87036082 C0.0197596741,9.31237113 0.536847251,9.24871134 0.536847251,9.24871134 C0.630513238,8.98015464 0.862753564,9.14381443 0.862753564,9.14381443 C0.980028513,8.84484536 1.38548676,9.06958763 1.38548676,9.06958763 C1.26461914,8.81417526 1.64569857,8.8128866 1.64569857,8.8128866 C1.71960489,8.77164948 1.78760896,8.76701031 1.84611813,8.78221649 C1.84483503,8.74819588 1.84971079,8.72680412 1.84971079,8.72680412 C1.61182485,8.41597938 1.84509165,8.15 1.84509165,8.15 C1.63876986,7.98041237 1.82995112,7.80979381 1.82995112,7.80979381 C1.79941344,7.72139175 1.83816293,7.67216495 1.88974338,7.64484536 C1.66006925,7.10670103 2.03037067,6.68530928 2.03037067,6.68530928 C1.59771079,6.33092784 1.99521385,5.97525773 1.99521385,5.97525773 C1.85330346,5.5443299 2.4663666,5.55721649 2.4663666,5.55721649 C1.85432994,4.38582474 2.93751935,4.25618557 2.93751935,4.25618557 C3.13434623,3.69329897 3.62089613,4.03479381 3.62089613,4.03479381 C3.86699389,3.41185567 4.71819959,3.88298969 4.71819959,3.88298969 C4.46619959,3.34716495 5.26454175,3.34252577 5.26454175,3.34252577 C5.80036253,3.04226804 6.1752831,3.68041237 6.1752831,3.68041237 C6.49426069,3.26365979 6.75678208,3.11752577 6.96643992,3.10927835 C6.78937271,2.52757732 7.37446436,2.45592784 7.37446436,2.45592784 C7.50687984,2.07912371 7.83047658,2.30747423 7.83047658,2.30747423 C7.9970224,1.89072165 8.56440733,2.20618557 8.56440733,2.20618557 C8.39683503,1.84819588 8.93239919,1.84587629 8.93239919,1.84587629 C9.28986965,1.64458763 9.54084318,2.07190722 9.54084318,2.07190722 C10.1762322,1.23840206 10.4867413,2.02603093 10.4867413,2.02603093 C11.5663381,1.49381443 11.7410957,2.49819588 11.7410957,2.49819588 C11.9602485,2.21572165 12.2569002,2.50515464 12.5404644,2.91134021 C12.728053,3.18221649 12.6071853,3.42706186 12.5040244,3.56005155 C12.691613,3.66829897 12.8040122,3.86030928 12.8040122,3.86030928 C13.6434134,2.75953608 14.0524644,3.80025773 14.0524644,3.80025773 C15.4767006,3.09613402 15.7076578,4.4242268 15.7076578,4.4242268 C15.9948147,4.04974227 16.3864155,4.43247423 16.7626191,4.9693299 C17.1377963,5.50747423 16.5809328,5.96417526 16.5809328,5.96417526 C16.9748432,6.30798969 16.3782037,6.53994845 16.3782037,6.53994845 C16.6971813,6.84613402 16.3817963,7.15103093 16.3009613,7.2193299 C16.677165,6.9121134 16.8614175,7.28762887 16.8614175,7.28762887 C17.4182811,7.37835052 16.8344725,7.82087629 16.8344725,7.82087629 C16.6317434,7.89974227 16.502664,7.6878866 16.502664,7.6878866 C16.227055,7.82319588 16.1826599,7.92809278 16.20011,7.99510309 C16.8963177,7.83273196 17.020778,8.53891753 17.020778,8.53891753 C17.2165784,8.28221649 17.485002,8.54484536 17.7429043,8.9121134 C17.9984969,9.27938144 17.6174175,9.59252577 17.6174175,9.59252577 C17.8871242,9.82809278 17.4790998,9.98814433 17.4790998,9.98814433 C17.6982525,10.1976804 17.4803829,10.4061856 17.4252098,10.4530928 C17.6843951,10.2399485 17.8096253,10.4979381 17.8096253,10.4979381 C18.1907047,10.5603093 17.7919185,10.8652062 17.7919185,10.8652062 C17.6512912,10.9170103 17.5632709,10.771134 17.5632709,10.771134 C17.4624196,10.8216495 17.4072464,10.8664948 17.3792749,10.9030928 C17.6371772,11.006701 17.6910672,11.3188144 17.6910672,11.3188144 C17.8458086,11.1162371 18.055723,11.3234536 18.2607617,11.614433 C18.4634908,11.9028351 18.16222,12.15 18.16222,12.15 C18.374444,12.3360825 18.0531568,12.4631443 18.0531568,12.4631443 C18.2256049,12.6268041 18.0544399,12.7917526 18.0097882,12.8293814 C18.21611,12.6621134 18.3146517,12.8646907 18.3146517,12.8646907 C18.613613,12.9141753 18.2995112,13.1543814 18.2995112,13.1543814 C18.1894216,13.1966495 18.1201344,13.0824742 18.1201344,13.0824742 C17.843499,13.2177835 17.9969572,13.2943299 17.9969572,13.2943299 C18.2055886,13.2484536 18.0824114,13.4273196 18.0824114,13.4273196 L17.9558982,13.4451031 L17.8047495,13.5298969 L17.8142444,13.5793814 L17.9292098,13.5652062 L17.9397312,13.6536082 L17.8050061,13.7159794 L17.8460652,13.818299 C18.0020896,14.0384021 17.4780733,14.1479381 17.4780733,14.1479381 C17.3972383,14.8131443 16.7746802,14.5742268 16.6317434,14.5069588 C16.5203707,14.5587629 16.4020692,14.5976804 16.2752994,14.6141753 C15.9576049,14.6564433 15.656334,14.5742268 15.4135723,14.4046392 L15.3378697,14.4159794 Z" id="Shape" fill="#9BCB64"></path>
                    <path d="M9.26677393,24.9131443 C9.26677393,24.9131443 9.21057434,24.5940722 9.29962118,23.5085052 L8.99142159,19.9987113 C8.99142159,19.9987113 8.93753157,18.7095361 9.10407739,18.3373711 C9.10407739,18.3373711 11.620998,15.8814433 12.1309002,15.746134 C12.1309002,15.746134 12.4978656,12.5332474 12.9561874,12.4695876 L12.4988921,12.1976804 C12.4988921,12.1976804 12.088558,15.2329897 11.7919063,15.6966495 C11.7919063,15.6966495 10.6301914,11.3087629 10.8105947,10.8458763 L10.6417393,10.9778351 C10.6417393,10.9778351 11.1867984,15.3574742 11.085947,15.6600515 L10.3438045,16.4301546 C10.3438045,16.4301546 10.0882118,17.2048969 9.93475356,16.8528351 C9.93475356,16.8528351 8.51513646,15.982732 9.21724644,11.4018041 L8.64626884,11.0322165 L8.1725499,14.046134 C8.1725499,14.046134 8.50204888,14.0448454 8.35654582,14.8113402 C8.35654582,14.8113402 8.93573523,16.6337629 8.8441222,16.8128866 C8.8441222,16.8128866 8.70580448,17.6806701 8.32831772,17.4262887 L7.53356823,15.5402062 C7.53356823,15.5402062 6.8643055,12.8476804 7.31544196,12.4332474 L7.14299389,12.2154639 C7.14299389,12.2154639 6.84403259,13.5505155 7.0855112,14.5278351 C7.0855112,14.5278351 5.86759674,13.1716495 5.48882688,13.1739691 L5.49934827,13.4188144 C5.49934827,13.4188144 5.73133198,12.9373711 6.98825255,14.7832474 C6.98825255,14.7832474 7.85331568,17.2273196 7.88513646,17.706701 C7.88513646,17.706701 7.78325866,19.1677835 7.84305092,19.4445876 C7.84305092,19.4445876 8.60033401,23.3463918 7.35316497,24.5201031 L9.26677393,24.9131443 Z" id="Shape" fill="#4E342E"></path>
                    <path d="M122.754024,12.8757732 C122.784562,12.9971649 122.676782,13.1018041 122.642652,13.1301546 C122.846664,12.9652062 122.943923,13.1667526 122.943923,13.1667526 C123.24391,13.2149485 122.928782,13.4541237 122.928782,13.4541237 C122.821002,13.4963918 122.750688,13.3798969 122.750688,13.3798969 C122.476363,13.5164948 122.629821,13.5940722 122.629821,13.5940722 C122.834859,13.5458763 122.711939,13.7247423 122.711939,13.7247423 L122.587735,13.7425258 L122.437613,13.8237113 L122.445825,13.8778351 L122.558481,13.8626289 L122.571312,13.9510309 L122.436587,14.0123711 L122.477646,14.1136598 C122.631104,14.3337629 122.114273,14.4409794 122.114273,14.4409794 C122.031128,15.103866 121.414473,14.8649485 121.268969,14.7989691 C121.15888,14.8530928 121.040322,14.8896907 120.916118,14.9072165 C120.599707,14.9494845 120.299462,14.867268 120.059267,14.6963918 C119.87758,14.7340206 119.67947,14.6798969 119.67947,14.6798969 C119.469556,14.7033505 119.552957,14.3938144 119.552957,14.3938144 C119.387695,14.7363402 119.148525,14.4396907 119.148525,14.4396907 C118.919878,14.1948454 119.195487,14.0487113 119.195487,14.0487113 C119.064098,13.8992268 119.245784,13.7768041 119.245784,13.7768041 C118.897552,13.7108247 118.816717,13.5306701 118.801576,13.4188144 C118.653764,13.3729381 118.533153,13.3221649 118.46053,13.2904639 C118.189796,13.4188144 117.896737,13.510567 117.585971,13.5530928 C116.808672,13.6603093 116.060884,13.4564433 115.468864,13.0363402 C115.01747,13.1257732 114.527585,12.9974227 114.527585,12.9974227 C114.005878,13.0515464 114.213483,12.2863402 114.213483,12.2863402 C113.933255,12.8726804 113.566289,12.7054124 113.364843,12.5440722 C113.40231,12.7242268 112.972216,12.8136598 112.972216,12.8136598 C112.892407,13.4765464 112.276008,13.2376289 112.130505,13.1716495 C112.021442,13.2234536 111.900831,13.2610825 111.775344,13.2775773 C111.462269,13.3224227 111.160998,13.2376289 110.919519,13.0690722 C110.737833,13.1056701 110.539723,13.0525773 110.539723,13.0525773 C110.328782,13.0760309 110.41321,12.7641753 110.41321,12.7641753 C110.250257,13.1090206 110.007495,12.8113402 110.007495,12.8113402 C109.781157,12.5664948 110.059075,12.4239691 110.059075,12.4239691 C109.925377,12.2708763 110.106037,12.1471649 110.106037,12.1471649 C109.588949,12.0494845 109.661829,11.6974227 109.661829,11.6974227 C109.423943,11.3889175 109.658236,11.1216495 109.658236,11.1216495 C109.624363,11.0945876 109.602037,11.0675258 109.585613,11.0414948 C109.293837,11.067268 109.014635,10.9860825 108.790864,10.8260309 C108.606868,10.8613402 108.408758,10.8095361 108.408758,10.8095361 C108.196534,10.8329897 108.279935,10.5198454 108.279935,10.5198454 C108.115699,10.867268 107.87422,10.5680412 107.87422,10.5680412 C107.643263,10.3208763 107.921181,10.1760309 107.921181,10.1760309 C107.789792,10.0242268 107.972762,9.89819588 107.972762,9.89819588 C107.450029,9.80051546 107.523678,9.44716495 107.523678,9.44716495 C107.285792,9.13505155 107.520086,8.86675258 107.520086,8.86675258 C107.312481,8.69845361 107.502379,8.53015464 107.502379,8.53015464 C107.436684,8.32293814 107.727434,8.33118557 107.727434,8.33118557 C107.436684,7.77190722 107.953772,7.70953608 107.953772,7.70953608 C108.047438,7.43994845 108.279678,7.60360825 108.279678,7.60360825 C108.396953,7.3056701 108.802411,7.5306701 108.802411,7.5306701 C108.681544,7.27525773 109.062623,7.27293814 109.062623,7.27293814 C109.13653,7.23170103 109.204534,7.22706186 109.262016,7.24226804 C109.260733,7.20824742 109.265609,7.18685567 109.265609,7.18685567 C109.028749,6.87731959 109.26099,6.61005155 109.26099,6.61005155 C109.055951,6.44046392 109.245849,6.27087629 109.245849,6.27087629 C109.216595,6.1814433 109.254061,6.13324742 109.306925,6.10489691 C109.077251,5.56675258 109.447552,5.14407216 109.447552,5.14407216 C109.014892,4.79097938 109.412395,4.43659794 109.412395,4.43659794 C109.270485,4.00463918 109.883548,4.0185567 109.883548,4.0185567 C109.271511,2.84716495 110.354701,2.71649485 110.354701,2.71649485 C110.551527,2.15360825 111.038077,2.49407216 111.038077,2.49407216 C111.284175,1.87242268 112.135381,2.34329897 112.135381,2.34329897 C111.883381,1.80747423 112.681723,1.80283505 112.681723,1.80283505 C113.217544,1.50257732 113.591438,2.14201031 113.591438,2.14201031 C113.910415,1.72396907 114.173963,1.57912371 114.383878,1.56984536 C114.205784,0.98814433 114.791902,0.917525773 114.791902,0.917525773 C114.924318,0.540721649 115.247914,0.769072165 115.247914,0.769072165 C115.41446,0.351030928 115.981845,0.666752577 115.981845,0.666752577 C115.814273,0.310051546 116.349837,0.306443299 116.349837,0.306443299 C116.707308,0.105154639 116.958281,0.532474227 116.958281,0.532474227 C117.59367,-0.301030928 117.904179,0.486597938 117.904179,0.486597938 C118.983776,-0.0443298969 119.158534,0.959793814 119.158534,0.959793814 C119.377686,0.676030928 119.674338,0.966752577 119.957902,1.37293814 C120.145491,1.64252577 120.023597,1.88737113 119.920436,2.02164948 C120.108024,2.12886598 120.221707,2.32061856 120.221707,2.32061856 C121.061108,1.21984536 121.468876,2.26056701 121.468876,2.26056701 C122.893112,1.5564433 123.125352,2.88453608 123.125352,2.88453608 C123.412509,2.51005155 123.802827,2.89278351 124.180314,3.42963918 C124.555491,3.96778351 123.998627,4.4257732 123.998627,4.4257732 C124.392538,4.76829897 123.795898,5.00025773 123.795898,5.00025773 C124.113593,5.3064433 123.798208,5.61134021 123.717373,5.6806701 C124.094859,5.37216495 124.278855,5.74768041 124.278855,5.74768041 C124.835719,5.83840206 124.25191,6.28221649 124.25191,6.28221649 C124.049181,6.36005155 123.919075,6.14793814 123.919075,6.14793814 C123.643723,6.28324742 123.600098,6.38685567 123.617804,6.45515464 C124.312986,6.29278351 124.437189,6.99896907 124.437189,6.99896907 C124.634016,6.74226804 124.901413,7.00489691 125.160599,7.37216495 C125.416191,7.73943299 125.035112,8.05257732 125.035112,8.05257732 C125.304819,8.28814433 124.895511,8.44819588 124.895511,8.44819588 C125.115947,8.65773196 124.897821,8.86623711 124.842648,8.91314433 C125.101833,8.7 125.227063,8.95798969 125.227063,8.95798969 C125.608143,9.02036082 125.20833,9.32525773 125.20833,9.32525773 C125.067703,9.37706186 124.980965,9.23118557 124.980965,9.23118557 C124.880114,9.28170103 124.824941,9.32654639 124.796969,9.36314433 C125.053589,9.46675258 125.108762,9.77886598 125.108762,9.77886598 C125.263503,9.57628866 125.473418,9.78350515 125.67743,10.0744845 C125.881442,10.3641753 125.580171,10.6113402 125.580171,10.6113402 C125.792395,10.7974227 125.471108,10.9234536 125.471108,10.9234536 C125.643556,11.0871134 125.472391,11.2530928 125.427739,11.2896907 C125.634061,11.1224227 125.73132,11.325 125.73132,11.325 C126.031308,11.3731959 125.717206,11.6146907 125.717206,11.6146907 C125.607116,11.6569588 125.537829,11.5427835 125.537829,11.5427835 C125.261193,11.6780928 125.414652,11.7546392 125.414652,11.7546392 C125.623283,11.7087629 125.499079,11.8889175 125.499079,11.8889175 L125.372566,11.9054124 L125.222444,11.9889175 L125.231939,12.039433 L125.345621,12.0265464 L125.356143,12.1136598 L125.222444,12.1760309 L125.263503,12.2783505 C125.419527,12.4984536 124.894228,12.6079897 124.894228,12.6079897 C124.81442,13.2731959 124.192118,13.0353093 124.048925,12.9670103 C123.937552,13.0188144 123.817967,13.057732 123.691454,13.0752577 C123.375043,13.1175258 123.072489,13.0353093 122.83101,12.864433 L122.754024,12.8757732 Z" id="Shape" fill="#9BCB64"></path>
                    <path d="M116.681646,23.3731959 C116.681646,23.3731959 116.626473,23.0541237 116.715519,21.9685567 L116.40732,18.4600515 C116.40732,18.4600515 116.352147,17.1708763 116.518692,16.7976804 C116.518692,16.7976804 119.03664,14.3427835 119.546542,14.2064433 C119.546542,14.2064433 119.913507,10.9935567 120.371829,10.9298969 L119.914534,10.6590206 C119.914534,10.6590206 119.5042,13.6943299 119.206521,14.1569588 C119.206521,14.1569588 118.04609,9.76907216 118.226493,9.30618557 L118.057637,9.43814433 C118.057637,9.43814433 118.602697,13.8177835 118.501845,14.1216495 L117.758676,14.8904639 C117.758676,14.8904639 117.504367,15.6652062 117.350652,15.314433 C117.350652,15.314433 115.931035,14.443299 116.633145,9.8621134 L116.061141,9.49252577 L115.588705,12.507732 C115.588705,12.507732 115.916921,12.5064433 115.771674,13.2719072 C115.771674,13.2719072 116.350864,15.0943299 116.260534,15.2734536 C116.260534,15.2734536 116.122216,16.142268 115.744729,15.885567 L114.94998,14.0005155 C114.94998,14.0005155 114.279434,11.3079897 114.731853,10.8935567 L114.559405,10.6757732 C114.559405,10.6757732 114.260444,12.0121134 114.500896,12.9881443 C114.500896,12.9881443 113.282982,11.6329897 112.905495,11.6353093 L112.916016,11.8791237 C112.916016,11.8791237 113.148,11.3987113 114.404921,13.2435567 C114.404921,13.2435567 115.269984,15.6876289 115.300521,16.1670103 C115.300521,16.1670103 115.19967,17.6280928 115.259462,17.9036082 C115.259462,17.9036082 116.016745,21.8064433 114.769576,22.9814433 L116.681646,23.3731959 Z" id="Shape" fill="#4E342E"></path>
                </g>
                <g id="Group" transform="translate(54.000000, 85.000000)" fill="#FFFFFF">
                    <polygon id="Shape" points="3.43327397 0.129666667 15.6653699 0.129666667 15.6653699 1.424 3.43327397 1.424"></polygon>
                    <polygon id="Shape" points="1.76257534 1.424 17.3358082 1.424 17.3358082 2.72 1.76257534 2.72"></polygon>
                    <polygon id="Shape" points="0.132739726 2.72 18.9659041 2.72 18.9659041 4.69166667 0.132739726 4.69166667"></polygon>
                </g>
                <path d="M101.057357,103.956724 L113.326141,103.956724 L112.58251,102.084242 L101.049342,102.084242 L101.057357,103.956724 Z M115,108.169614 C114.502326,108.791037 113.991878,109.399625 113.472664,110 L101.151281,110 L101.079147,109.638851 L101.073386,108.127519 L114.982968,108.127519 L115,108.169614 Z M111.383283,99.0672245 L101.03782,99.0672245 L101.044583,100.939706 L112.126914,100.939706 L111.383283,99.0672245 Z M101.008015,91.8737647 L108.526227,91.8737647 L107.782596,90.0012834 L101,90 L101.008015,91.8737647 Z M101.03206,97.917041 L110.926685,97.917041 L110.183054,96.0445597 L101.025297,96.0445597 L101.03206,97.917041 Z M101.020538,94.8954029 L109.726456,94.8954029 L108.981573,93.0229215 L101.012523,93.0229215 L101.020538,94.8954029 Z M101.067626,106.978362 L114.52637,106.978362 L113.782739,105.105881 L101.060863,105.105881 L101.067626,106.978362 Z" id="Shape" fill="#FFFFFF"></path>
            </g>
        </g>
    </g>
</svg>