<?xml version="1.0" standalone="no"?><!DOCTYPE svg PUBLIC "-//W3C//DTD SVG 1.1//EN" "http://www.w3.org/Graphics/SVG/1.1/DTD/svg11.dtd">
<svg width="19px" height="19px" viewBox="0 0 19 19" version="1.1" xmlns="http://www.w3.org/2000/svg" xmlns:xlink="http://www.w3.org/1999/xlink">
    <!-- Generator: Sketch 49.2 (51160) - http://www.bohemiancoding.com/sketch -->
    <g id="Page-1" stroke="none" stroke-width="1" fill="none" fill-rule="evenodd">
        <g id="Group-3" transform="translate(-472.000000, -209.000000)" fill="#444444" fill-rule="nonzero">
            <g id="数据查询" transform="translate(472.000000, 209.000000)">
                <path d="M10.898875,18.0070125 L0.947625,18.0070125 L0.947625,0.4738125 C0.947625,0.213275 0.7345875,0 0.4738125,0 C0.2130375,0 0,0.213275 0,0.4738125 L0,18.480825 C0,18.7413625 0.213275,18.9546375 0.4738125,18.9546375 L10.898875,18.9546375 C11.1594125,18.9546375 11.3726875,18.7413625 11.3726875,18.480825 C11.372925,18.2202875 11.15965,18.0070125 10.898875,18.0070125 Z" id="Shape"></path>
                <path d="M3.5133375,13.4645875 C3.8076,13.170325 3.8638875,12.7319 3.6900375,12.378025 L5.703325,8.0541 C5.9401125,8.049825 6.1757125,7.9588625 6.35645,7.778125 C6.4160625,7.7185125 6.4626125,7.6515375 6.5029875,7.58195 L11.029975,7.58195 C11.07035,7.6515375 11.1169,7.7185125 11.1765125,7.778125 C11.5465375,8.14815 12.1467,8.14815 12.516725,7.778125 C12.7425875,7.5522625 12.8288,7.2411375 12.778925,6.9485375 L17.2907125,2.3339125 C17.60635,2.417275 17.955475,2.3391375 18.20295,2.0916625 C18.572975,1.7216375 18.572975,1.121475 18.20295,0.75145 C17.832925,0.381425 17.2327625,0.381425 16.8627375,0.75145 C16.6152625,0.998925 16.537125,1.34805 16.6204875,1.6636875 L12.167125,6.2189375 C11.8324875,6.0987625 11.44465,6.169775 11.1765125,6.4379125 C11.1169,6.497525 11.07035,6.5645 11.029975,6.6340875 L6.5029875,6.6340875 C6.4626125,6.5645 6.4160625,6.497525 6.35645,6.4379125 C5.986425,6.0678875 5.3862625,6.0678875 5.0162375,6.4379125 C4.70345,6.7507 4.6580875,7.2264125 4.873975,7.590025 L2.8899,11.8510125 C2.631975,11.8381875 2.3700125,11.9270125 2.1728875,12.1241375 C1.8028625,12.4941625 1.8028625,13.094325 2.1728875,13.46435 C2.5429125,13.834375 3.1433125,13.8346125 3.5133375,13.4645875 Z" id="Shape"></path>
                <path d="M18.8610625,18.1780125 L16.536175,15.853125 C17.1586625,15.0810125 17.5329625,14.100375 17.5329625,13.0313875 C17.5329625,10.5452375 15.5175375,8.529575 13.03115,8.529575 C10.5447625,8.529575 8.529575,10.545 8.529575,13.03115 C8.529575,15.5173 10.545,17.5329625 13.03115,17.5329625 C14.1067875,17.5329625 15.0936,17.1543875 15.86785,16.5250125 L18.1908375,18.848 C18.283225,18.940625 18.4045875,18.9869375 18.52595,18.9869375 C18.6473125,18.9869375 18.7684375,18.940625 18.8610625,18.848 C19.0463125,18.663225 19.0463125,18.363025 18.8610625,18.1780125 Z M9.4772,13.03115 C9.4772,11.0715375 11.0715375,9.4772 13.03115,9.4772 C14.9907625,9.4772 16.5851,11.0715375 16.5851,13.03115 C16.5851,14.9907625 14.991,16.5853375 13.03115,16.5853375 C11.0713,16.5853375 9.4772,14.991 9.4772,13.03115 Z" id="Shape"></path>
            </g>
        </g>
    </g>
</svg>