<?xml version="1.0" standalone="no"?><!DOCTYPE svg PUBLIC "-//W3C//DTD SVG 1.1//EN" "http://www.w3.org/Graphics/SVG/1.1/DTD/svg11.dtd">
<svg width="21px" height="16px" viewBox="0 0 21 16" version="1.1" xmlns="http://www.w3.org/2000/svg" xmlns:xlink="http://www.w3.org/1999/xlink">
    <!-- Generator: Sketch 49.2 (51160) - http://www.bohemiancoding.com/sketch -->
    <desc>Created with Sketch.</desc>
    <defs></defs>
    <g id="Page-1" stroke="none" stroke-width="1" fill="none" fill-rule="evenodd">
        <g id="Group-3" transform="translate(-342.000000, -213.000000)" fill="#444444" fill-rule="nonzero">
            <g id="Group-8" transform="translate(342.000000, 209.000000)">
                <g id="进度查询" transform="translate(0.000000, 4.000000)">
                    <path d="M14,15 C11.2395833,15 9,12.5306122 9,9.5 C9,6.46938776 11.2395833,4 14,4 C16.7604167,4 19,6.46938776 19,9.5 C19,12.5306122 16.7604167,15 14,15 Z M14,5.12244898 C11.8125,5.12244898 10.0416667,7.0867347 10.0416667,9.5 C10.0416667,11.9132653 11.8125,13.877551 14,13.877551 C16.1875,13.877551 17.9583333,11.9132653 17.9583333,9.5 C17.9583333,7.0867347 16.1875,5.12244898 14,5.12244898 Z" id="Shape"></path>
                    <path d="M20.3548387,16 C20.1612903,16 20.032258,15.9354839 19.9032258,15.8064516 L17.1935484,13.0967742 C16.9354839,12.8387097 16.9354839,12.4516129 17.1935484,12.1935484 C17.4516129,11.9354839 17.8387097,11.9354839 18.0967742,12.1935484 L20.8064516,14.9032258 C21.0645161,15.1612903 21.0645161,15.5483871 20.8064516,15.8064516 C20.6774193,15.9354839 20.5483871,16 20.3548387,16 Z" id="Shape"></path>
                    <path d="M16.5111821,1 L0.543130985,1 C0.217252391,1 0,0.800000003 0,0.5 C0,0.199999997 0.217252391,0 0.543130985,0 L16.456869,0 C16.7827476,0 17,0.199999997 17,0.5 C17,0.800000003 16.7827476,1 16.5111821,1 Z" id="Shape"></path>
                    <path d="M7.40136055,8 L0.544217683,8 C0.21768707,8 0,7.8 0,7.5 C0,7.2 0.21768707,7 0.544217683,7 L7.45578232,7 C7.78231293,7 8,7.2 8,7.5 C8,7.8 7.72789117,8 7.40136055,8 Z" id="Shape"></path>
                    <path d="M8.4267516,14 L0.573248402,14 C0.229299358,14 0,13.8 0,13.5 C0,13.2 0.229299358,13 0.573248402,13 L8.4267516,13 C8.77070064,13 9,13.2 9,13.5 C9,13.8 8.77070064,14 8.4267516,14 Z" id="Shape"></path>
                </g>
            </g>
        </g>
    </g>
</svg>