<?xml version="1.0" encoding="UTF-8"?>
<svg width="70px" height="70px" viewBox="0 0 70 70" version="1.1" xmlns="http://www.w3.org/2000/svg" xmlns:xlink="http://www.w3.org/1999/xlink">
    <!-- Generator: Sketch 51.3 (57544) - http://www.bohemiancoding.com/sketch -->
    <title>已完成status-stop</title>
    <desc>Created with Sketch.</desc>
    <defs></defs>
    <g id="Page-1" stroke="none" stroke-width="1" fill="none" fill-rule="evenodd">
        <g id="已完成" fill="#BFBFBF">
            <path d="M34.9784854,69.9999218 C26.4253132,69.9999218 17.852202,66.8906394 11.1156777,60.6073176 C-2.99808067,47.4433907 -3.77875526,25.2422419 9.38777837,11.1198621 C22.554312,-3.00236127 44.7454408,-3.777492 58.8648291,9.3918313 C65.7043329,15.7711158 69.6469585,24.4318389 69.9788078,33.7775176 C70.2995537,43.1236656 66.9705052,52.0383338 60.5978891,58.8735775 C53.7080292,66.2635586 44.3447821,69.9992961 34.9784854,70 L34.9784854,69.9999218 Z M34.9945931,1.53220434 C26.026453,1.53001448 17.083569,5.10166923 10.4976437,12.1657529 C-2.09292351,25.6702805 -1.35157978,46.9044516 12.1501654,59.4976864 C25.6519106,72.0909212 46.8815835,71.3494204 59.4720725,57.8448145 C65.5726566,51.3012909 68.7605676,42.7789197 68.4484229,33.8364091 C68.1361999,24.8939767 64.3616883,16.6147577 57.8195508,10.512881 C51.3803929,4.50696698 43.1769761,1.52860672 34.9945931,1.53220434 Z M35.0085895,57.0778958 C31.3460497,57.0730468 27.7073586,56.1709044 24.487545,54.4295781 C24.1155048,54.2323346 23.9830466,53.7665992 24.1803264,53.3944802 C24.3837999,53.026934 24.8441844,52.8902331 25.215205,53.0871965 C29.128743,55.2082283 33.7151281,55.9997829 38.1392635,55.3140452 C42.7340934,54.6057051 46.8405324,52.4259383 50.0134304,49.0225896 C51.8265597,47.0778413 53.2257375,44.8432499 54.1689744,42.3865446 C54.3212153,41.9939347 54.7571389,41.8015402 55.1549827,41.9481824 C55.5476657,42.1004555 55.7456493,42.5417897 55.5933302,42.9343995 C54.5735427,45.5763823 53.0750604,47.9749783 51.1285346,50.0626929 C47.7156636,53.7234278 43.3048209,56.0577359 38.3689151,56.8222302 C37.2574077,56.993821 36.1316694,57.0774266 35.0085895,57.077974 L35.0085895,57.0778958 Z M14.8755673,28.696583 C14.7906987,28.6936559 14.7065549,28.6798568 14.6251947,28.6555233 C14.2276637,28.5199868 14.0185768,28.079122 14.1597926,27.6868249 C15.1711352,24.80169 16.7510943,22.2010016 18.8468896,19.9531147 C22.0518466,16.5155104 26.1875297,14.2239827 30.7872074,13.3384207 C35.8705062,12.3585385 41.1496774,13.1867732 45.657088,15.6800022 C46.0238111,15.8829549 46.1562693,16.3486903 45.9533596,16.7154911 C45.7503717,17.082292 45.290443,17.2200183 44.91809,17.0116691 C40.7208694,14.6903438 35.8086559,13.9156041 31.0717502,14.833623 C26.7853118,15.6584947 22.9430073,17.7958721 19.9566767,20.9989272 C18.0049121,23.0924293 16.53497,25.5176946 15.5940788,28.2011282 C15.4829672,28.5037976 15.1853663,28.6968177 14.8755673,28.6965831 Z M11.7159621,20.7556185 L9.51366841,20.9044505 L10.4792684,18.9284185 L9.65558792,16.8876294 L11.8348148,17.187796 L13.5227577,15.7786238 L13.9082471,17.9454079 L15.7745473,19.1086906 L13.8302891,20.1504362 L13.2962338,22.2829647 L11.7159621,20.7556185 Z M28.3077211,64.3341393 L26.1112137,64.4882895 L27.0767355,62.5122575 L26.2474252,60.4661501 L28.4322819,60.771635 L30.119912,59.3514353 L30.5000061,61.5239286 L32.3720144,62.6925295 L30.4273652,63.7233259 L29.8937009,65.8668819 L28.3077211,64.3341393 Z M42.9928326,61.5413693 L41.0689827,60.4741274 L42.9492011,59.340486 L43.3715974,57.1787073 L45.0318602,58.6203363 L47.2245361,58.3555984 L46.3603519,60.3834048 L47.2930328,62.3761736 L45.0955871,62.1872985 L43.4884171,63.6932154 L42.9928326,61.5413693 Z M56.4468803,53.1196533 L54.2503729,53.2738035 L55.22129,51.2921404 L54.3976095,49.2512731 L56.5768363,49.5514397 L58.2647793,48.1423457 L58.6502686,50.3091298 L60.5112517,51.4781217 L58.5723107,52.5141582 L58.0382554,54.6466866 L56.4468803,53.1196533 Z M20.4143378,12.2398951 L18.3717134,11.4147888 L20.1058681,10.0594245 L20.2614714,7.8626081 L22.0859385,9.09377629 L24.2251308,8.56531717 L23.618591,10.6836898 L24.784755,12.552106 L22.585589,12.6289074 L21.1671759,14.310873 L20.4143378,12.2398951 Z M31.7232506,8.29784193 L30.2229698,6.68462211 L32.363335,6.18932367 L33.4356679,4.25943507 L34.5694601,6.15100119 L36.7307026,6.57356514 L35.2894572,8.23417969 L35.5537481,10.4162145 L33.5267622,9.56295289 L31.5287075,10.490435 L31.7232506,8.29784193 Z M42.9838404,8.67371503 L42.3403156,6.56574423 L44.4823228,7.06643911 L46.2915424,5.80242308 L46.4842089,7.99259168 L48.240023,9.32019173 L46.2176504,10.1820564 L45.4936655,12.2658606 L44.0524201,10.6007881 L41.8493445,10.5671582 L42.9838404,8.67371503 Z" id="Shape" fill-rule="nonzero"></path>
            <path d="M22.9312844,35.1393515 L10.7844423,35.1393515 L10.7844423,40.8452726 C10.7844423,41.6963252 11.2293108,42.1411936 12.1190476,42.1411936 L21.8287844,42.1411936 C22.292995,42.1411936 22.6798371,42.025141 22.9699686,41.7930357 C23.3568108,41.4448778 23.6082581,40.2069831 23.7243108,38.0793515 L25.0782581,38.5048778 C24.8848371,40.9032989 24.5560213,42.3346147 24.0918108,42.8375094 C23.6662844,43.2436936 23.027995,43.4564568 22.2156265,43.495141 L11.7322055,43.495141 C10.165495,43.495141 9.39181075,42.6827726 9.39181075,41.0967199 L9.39181075,30.9421147 L10.7844423,30.9421147 L10.7844423,33.8047463 L21.5193108,33.8047463 L21.5193108,28.7564568 L8.61812654,28.7564568 L8.61812654,27.4025094 L22.9312844,27.4025094 L22.9312844,35.1393515 Z M33.2986529,40.2843515 L33.2986529,41.6963252 C31.5191792,42.3539568 29.4882581,42.8955357 27.2252318,43.321062 L27.0318108,41.8704042 C29.4108897,41.483562 31.4998371,40.9419831 33.2986529,40.2843515 Z M30.203916,26.3193515 L31.4998371,26.8222463 C30.5520739,29.2593515 29.5849686,31.193562 28.5791792,32.663562 C29.4108897,32.5668515 30.2426002,32.4314568 31.0743108,32.2767199 C31.4611529,31.4836936 31.8673371,30.632641 32.2928634,29.7429042 L33.511416,30.1877726 C31.7899686,33.7080357 30.377995,36.2031673 29.2561529,37.6731673 C30.3393108,37.4023778 31.4418108,37.0542199 32.5249686,36.6286936 L32.5249686,37.8859305 C30.8228634,38.5242199 29.1787844,38.9690884 27.631416,39.2011936 L27.263916,37.9246147 C27.4960213,37.8279042 27.7087844,37.6925094 27.8828634,37.5377726 C28.5985213,36.7447463 29.4495739,35.410141 30.4553634,33.5146147 C29.3915476,33.7080357 28.3277318,33.9014568 27.263916,34.0561936 L26.9351002,32.7796147 C27.1478634,32.7022463 27.3412844,32.5281673 27.4960213,32.2767199 C28.540495,30.5359305 29.4302318,28.5630357 30.203916,26.3193515 Z M37.2637844,36.7254042 C39.197995,37.3250094 40.9774686,38.0600094 42.5635213,38.911062 L41.8672055,39.9748778 C40.126416,39.0464568 38.3662844,38.3307989 36.5481265,37.7892199 L37.2637844,36.7254042 Z M34.9233897,40.013562 C38.0181265,40.8259305 40.8420739,41.7930357 43.3952318,42.953562 L42.6602318,44.1140884 C39.8943108,42.8761936 37.0510213,41.8897463 34.1497055,41.1740884 L34.9233897,40.013562 Z M36.7608897,26.3193515 L38.1728634,26.4934305 C37.9987844,27.0930357 37.8053634,27.6732989 37.5926002,28.2148778 L43.1437844,28.2148778 L43.1437844,29.356062 C42.3120739,30.9421147 41.3256265,32.3154042 40.1651002,33.4952726 C41.5383897,34.4623778 43.066416,35.3134305 44.7685213,36.0097463 L44.0528634,37.2669831 C42.2733897,36.4932989 40.6486529,35.5261936 39.197995,34.4043515 C37.5926002,35.7389568 35.7357581,36.7640884 33.6081265,37.4990884 L32.9311529,36.2611936 C34.9040476,35.6422463 36.625495,34.7331673 38.1341792,33.5339568 C37.3024686,32.837641 36.5287844,32.0639568 35.8324686,31.2515884 C35.348916,31.8705357 34.8073371,32.4507989 34.2270739,32.9923778 L33.3566792,31.8511936 C35.0201002,30.3425094 36.1612844,28.4856673 36.7608897,26.3193515 Z M39.1012844,32.6829042 C40.0297055,31.7738252 40.8420739,30.7293515 41.5577318,29.5688252 L36.9543108,29.5688252 C36.818916,29.8009305 36.6835213,30.0136936 36.5674686,30.2264568 C37.3218108,31.1161936 38.1728634,31.928562 39.1012844,32.6829042 Z M55.2712844,26.4740884 L56.7026002,26.4740884 L56.7026002,32.7602726 L62.6599686,32.7602726 L62.6599686,34.1142199 L56.7026002,34.1142199 L56.7026002,41.9284305 L63.7237844,41.9284305 L63.7237844,43.2823778 L46.547995,43.2823778 L46.547995,41.9284305 L49.8361529,41.9284305 L49.8361529,29.8589568 L51.2287844,29.8589568 L51.2287844,41.9284305 L55.2712844,41.9284305 L55.2712844,26.4740884 Z" id="已终止" fill-opacity="0.85" transform="translate(36.170955, 35.216720) rotate(-22.000000) translate(-36.170955, -35.216720) "></path>
        </g>
    </g>
</svg>