<?xml version="1.0" standalone="no"?><!DOCTYPE svg PUBLIC "-//W3C//DTD SVG 1.1//EN" "http://www.w3.org/Graphics/SVG/1.1/DTD/svg11.dtd">
<svg width="65px" height="65px" viewBox="0 0 65 65" version="1.1" xmlns="http://www.w3.org/2000/svg" xmlns:xlink="http://www.w3.org/1999/xlink">
                            <g id="Page-1" stroke="none" stroke-width="1" fill="none" fill-rule="evenodd">
                                <g id="1" transform="translate(-395.000000, -29.000000)" fill="#BFBFBF" fill-rule="nonzero">
                                    <g transform="translate(51.000000, 16.000000)" id="已完成">
                                        <g transform="translate(344.000000, 13.000000)">
                                            <path d="M12.5727956,43.656163 L14.5236421,48.7404574 C14.8130195,49.4968314 15.3641016,49.740522 16.1535643,49.4387947 L24.8091115,46.115525 C25.2233323,45.9611823 25.5279693,45.715594 25.7078418,45.4184527 C25.9330186,44.9797779 25.734882,43.7894733 25.1078186,41.8533109 L26.4587999,41.7726605 C27.1063412,43.9765506 27.3003664,45.368402 27.0640415,45.9696427 C26.8246331,46.4815353 26.3296079,46.8847872 25.6188148,47.1949748 L16.2731895,50.7828885 C14.8765877,51.3183437 13.9096244,50.8598226 13.367951,49.4466225 L9.90214255,40.3870555 L11.1442516,39.9129578 L12.1229165,42.4689421 L21.6892909,38.7950014 L19.9602214,34.2959757 L8.46181788,38.708658 L8,37.4996931 L20.7625716,32.6007365 L23.4090308,39.5014037 L12.5727956,43.6560839 L12.5727956,43.656163 Z M41.3543835,30.1922159 L40.0956709,30.67256 L39.0745481,28.022879 L26.9688474,32.6694474 L27.9845937,35.3249005 L26.725881,35.8051655 L25.2430195,31.9464406 L31.8615394,29.4048469 C31.4298453,28.8940612 31.0168895,28.4441586 30.5893857,28.0562461 L31.8937979,27.2834258 C32.3755914,27.7922475 32.8311223,28.3253114 33.2586156,28.8805404 L39.8606901,26.345035 L41.3543835,30.1922159 Z M42.5715871,32.68961 L43.027238,33.8820495 L38.1473544,35.7532172 L39.7167129,39.8438515 C39.9138217,40.3628604 40.2614699,40.5465377 40.7580763,40.3501303 L43.0489017,39.4700924 C43.3578872,39.3474564 43.5188633,39.1516025 43.5542053,38.8818191 C43.5937377,38.5728175 43.3972615,37.751686 42.9647767,36.4185037 L44.2825508,36.350109 C44.8115739,38.0435296 44.9954787,39.1448026 44.821536,39.6096492 C44.6626157,40.0235754 44.3163115,40.3601721 43.7310734,40.5819606 L40.8165052,41.7019729 C39.7511852,42.1139223 39.0046548,41.720475 38.5679004,40.5888396 L36.9001852,36.2443147 L34.0021416,37.3580805 L34.0511618,37.4794515 C34.6481016,39.1928765 34.7072421,40.7292661 34.2404431,42.0994527 C33.7362465,43.3590217 32.6285477,44.6396231 30.8997153,45.9140572 L29.7741479,45.08067 C31.4718287,43.8744725 32.5340652,42.7352465 32.9767494,41.6344479 C33.3469311,40.5417935 33.2928507,39.3129823 32.8314281,37.9528375 L32.7824079,37.8314666 L28.00689,39.6485511 L27.5513182,38.4561116 L42.5715871,32.68961 Z M38.6016611,30.5009803 L39.0634,31.7099452 L29.4087891,35.420653 L28.9470503,34.21153 L38.6016611,30.5009012 L38.6016611,30.5009803 Z M56.1446527,20.0812685 L55.6515251,21.1781926 L57.7546506,20.371847 L58.2103014,21.5643656 L52.9000678,23.6071921 C53.8458417,25.6999902 54.7185597,27.303114 55.5016972,28.4226518 C55.7727316,28.815941 56.0422637,29.1645562 56.3056288,29.496646 C56.637385,27.7843279 56.7059342,25.9021696 56.5335728,23.8495385 L57.8386965,23.8990357 C58.0225224,26.4380992 57.8670018,28.7148118 57.3654143,30.6904296 C57.8176653,31.1445228 58.2620889,31.5374167 58.6861138,31.8247534 C59.5745657,32.4370637 60.1981503,32.6726102 60.540264,32.5375604 C60.8430824,32.3983989 60.7967504,31.3929576 60.373279,29.5168086 L61.73359,29.7042811 C62.1997564,32.1607175 62.0577559,33.5419738 61.2791251,33.8320779 C60.5559979,34.1090566 59.5805746,33.8913796 58.3583899,33.173196 C57.8892981,32.8762919 57.4120625,32.5069607 56.949454,32.0755602 C56.2879183,33.9560581 55.2751764,35.5522238 53.9347106,36.8969502 L52.8504941,36.1236554 C54.2771406,34.6864184 55.3029282,32.9834304 55.917104,31.0263147 C55.428246,30.4839014 54.9427877,29.8798934 54.4662637,29.2084395 C53.5312426,27.9040383 52.5929799,26.185711 51.630207,24.0879315 L45.7182107,26.3587139 L46.8195843,29.2236998 L51.0425969,27.6049203 C52.1293435,30.5320544 52.7058845,32.4643425 52.8111198,33.3949054 C52.8735811,34.220702 52.4799962,34.8051009 51.6312348,35.1703997 C51.2170931,35.3247423 50.7080735,35.4879407 50.1378576,35.6588879 L49.3263359,34.6858649 C50.0121445,34.4605182 50.5869461,34.2614225 51.0562751,34.0828057 C51.4252709,33.9188166 51.5696433,33.5669596 51.490025,33.049453 C51.3676326,32.42718 50.9432124,31.166425 50.2498926,29.2549321 L47.269068,30.3996139 L47.4661767,30.9186227 C48.5819401,34.0349689 48.8455424,36.7781886 48.28434,39.1307283 L47.0144792,38.6491981 C47.509109,36.6346783 47.2406047,34.2327996 46.2074641,31.3989669 L44.0043216,25.6577673 L51.1252988,22.9251429 C50.7489781,22.0496911 50.3899015,21.1669261 50.0482771,20.2773596 L51.3235934,19.7908481 C51.698519,20.7568339 52.0533622,21.6283324 52.400536,22.4385523 L55.6241687,21.1959041 C54.8709968,20.7747035 53.9348688,20.3989677 52.7987857,20.0637942 L53.3042474,19 C54.3609493,19.3044156 55.313681,19.673905 56.1446527,20.0812685 Z" id="Shape"></path>
                                            <path d="M34.9784854,69.9999218 C26.4253132,69.9999218 17.852202,66.8906394 11.1156777,60.6073176 C-2.99808067,47.4433907 -3.77875526,25.2422419 9.38777837,11.1198621 C22.554312,-3.00236127 44.7454408,-3.777492 58.8648291,9.3918313 C65.7043329,15.7711158 69.6469585,24.4318389 69.9788078,33.7775176 C70.2995537,43.1236656 66.9705052,52.0383338 60.5978891,58.8735775 C53.7080292,66.2635586 44.3447821,69.9992961 34.9784854,70 L34.9784854,69.9999218 Z M34.9945931,1.53220434 C26.026453,1.53001448 17.083569,5.10166923 10.4976437,12.1657529 C-2.09292351,25.6702805 -1.35157978,46.9044516 12.1501654,59.4976864 C25.6519106,72.0909212 46.8815835,71.3494204 59.4720725,57.8448145 C65.5726566,51.3012909 68.7605676,42.7789197 68.4484229,33.8364091 C68.1361999,24.8939767 64.3616883,16.6147577 57.8195508,10.512881 C51.3803929,4.50696698 43.1769761,1.52860672 34.9945931,1.53220434 Z" id="Shape"></path>
                                            <path d="M34.6267536,55.999922 C31.010873,55.9950885 27.4185372,55.0958222 24.2397427,53.3600473 C23.8724421,53.1634326 23.7416713,52.699182 23.9364379,52.3282493 C24.1373191,51.9618748 24.5918387,51.8256098 24.9581327,52.0219452 C28.8218139,54.136215 33.3497703,54.9252462 37.7175442,54.2416946 C42.2538379,53.5356127 46.3079627,51.3627951 49.4404393,47.9702964 C51.2304701,46.031748 52.611823,43.8042806 53.5430435,41.3554073 C53.6933449,40.9640491 54.123715,40.772268 54.5164904,40.9184426 C54.9041709,41.0702304 55.0996323,41.5101575 54.9492536,41.9015157 C53.9424578,44.5350757 52.4630655,46.9260249 50.5413376,49.0070838 C47.1719451,52.6561482 42.8172946,54.9830144 37.9442701,55.7450715 C36.8469229,55.9161153 35.7355259,55.9994543 34.6267536,56 L34.6267536,55.999922 Z M14.7502174,27.7090899 C14.6664296,27.7061721 14.5833579,27.692417 14.5030345,27.668161 C14.1105678,27.5330566 13.9041446,27.0935972 14.0435613,26.7025509 C15.0420199,23.8266138 16.6018509,21.2342166 18.6709468,18.993496 C21.835074,15.5668509 25.9180702,13.2826287 30.4591501,12.3998899 C35.4776899,11.4231315 40.6896067,12.2487258 45.1395948,14.7340063 C45.501646,14.936312 45.6324168,15.4005626 45.432092,15.7661941 C45.2316901,16.1318255 44.7776207,16.2691127 44.4100113,16.0614278 C40.2662615,13.747503 35.4166275,12.9752332 30.7400679,13.8903253 C26.5082369,14.7125674 22.7148817,16.8431308 19.7665957,20.0359744 C17.8396957,22.1228024 16.38848,24.5403358 15.4595754,27.2152145 C15.3498793,27.516919 15.0560697,27.7093237 14.7502174,27.7090899 Z" id="Shape"></path>
                                            <path d="M11.202398,21.3335318 L9,21.4808963 L9.96564577,19.5243479 L9.14192623,17.5036808 L11.3212564,17.8008879 L13.0092793,16.4056101 L13.3947869,18.5510297 L15.2611756,19.7028425 L13.3168252,20.7343166 L12.7827447,22.8458184 L11.202398,21.3335318 Z M27.7949433,64.4823702 L25.5983318,64.6350005 L26.5638994,62.6784521 L25.7345497,60.6525192 L27.91951,60.954992 L29.6072201,59.5487955 L29.9873322,61.6998681 L31.8594292,62.8569466 L29.9146879,63.8775794 L29.3809983,66 L27.7949433,64.4823702 Z M42.4807507,61.7171368 L40.5568096,60.6604179 L42.4371172,59.5379541 L42.8595334,57.3974905 L44.5198749,58.8249051 L46.7126548,58.5627775 L45.8484296,60.5705898 L46.7811547,62.5437099 L44.5836048,62.3566972 L42.9763587,63.8477658 L42.4807507,61.7171368 Z M55.9354359,53.3784585 L53.7388244,53.5310888 L54.7097876,51.5689649 L53.886068,49.5482204 L56.0653981,49.8454274 L57.7534211,48.450227 L58.1389287,50.5956467 L60,51.7531124 L58.060967,52.7789336 L57.5268865,54.8904354 L55.9354359,53.3784585 Z M19.901186,12.9017731 L17.8584647,12.0848022 L19.5927017,10.7428018 L19.7483123,8.5676459 L21.5728659,9.78667483 L23.7121595,9.26342629 L23.105591,11.3609118 L24.2718102,13.2109056 L22.0725401,13.2869497 L20.6540597,14.9523312 L19.901186,12.9017731 Z M31.2106347,8.99858834 L29.7102828,7.40127481 L31.8507494,6.91085998 L32.9231331,5 L34.056979,6.87291536 L36.218324,7.29131285 L34.7770103,8.93555381 L35.0413137,11.0960739 L33.0142317,10.2512254 L31.0160824,11.1695626 L31.2106347,8.99858834 Z M42.4717581,9.37075535 L41.8282028,7.28356905 L43.9703115,7.7793271 L45.7796168,6.52777422 L45.9722925,8.69634785 L47.7281898,10.0108578 L45.7057214,10.8642245 L44.9817021,12.9274825 L43.5403884,11.2788276 L41.3372084,11.2455292 L42.4717581,9.37075535 Z" id="Shape"></path>
                                        </g>
                                    </g>
                                </g>
                            </g>
                        </svg>