<?xml version="1.0" standalone="no"?><!DOCTYPE svg PUBLIC "-//W3C//DTD SVG 1.1//EN" "http://www.w3.org/Graphics/SVG/1.1/DTD/svg11.dtd">
 <svg width="65px" height="65px" viewBox="0 0 61 61" version="1.1" xmlns="http://www.w3.org/2000/svg" xmlns:xlink="http://www.w3.org/1999/xlink">
                            <!-- Generator: Sketch 49.2 (51160) - http://www.bohemiancoding.com/sketch -->
                            <desc>Created with Sketch.</desc>
                            <defs></defs>
                            <g id="Page-1" stroke="none" stroke-width="1" fill="none" fill-rule="evenodd">
                                <g id="6" transform="translate(-275.000000, -51.000000)" fill="#BFBFBF" fill-rule="nonzero">
                                    <g id="底边框-copy-2" transform="translate(64.000000, 34.000000)">
                                        <g id="未开始-(2)" transform="translate(207.000000, 13.000000)">
                                            <path d="M68,36 C68,18.3089431 53.6538908,4 36,4 C18.3461092,4 4,18.3089431 4,36 C4,53.6910569 18.3461092,68 36,68 C53.6538908,68 68,53.6910569 68,36 Z M5.33797909,36 C5.33797909,19.0522648 19.0522648,5.33797909 36,5.33797909 C52.9477352,5.33797909 66.6620209,19.0522648 66.6620209,36 C66.6620209,52.9477352 52.9477352,66.6620209 36,66.6620209 C19.0522648,66.6620209 5.33797909,52.9477352 5.33797909,36 Z" id="Shape"></path>
                                            <path d="M44.1448949,52.1128171 C48.4121622,49.6528705 51.4286787,45.540721 52.4954955,40.7309746 C52.5690691,40.3638184 52.3483483,40.0333778 51.9804805,39.923231 C51.6126126,39.8497997 51.2815315,40.0700935 51.1711712,40.4372497 C50.2147147,44.8798398 47.3821321,48.6982644 43.4459459,50.9379172 C39.5833333,53.1775701 34.984985,53.6915888 30.7545045,52.4432577 C30.3866366,52.3331108 30.0187688,52.5534045 29.9451952,52.8838451 C29.8716216,53.2142857 30.0555556,53.6181575 30.3866366,53.6915888 C35.0217718,55.0867824 39.987988,54.4993324 44.1448949,52.1128171 Z M26.6711712,21.8591455 C22.4774775,24.2456609 19.4977477,28.2109479 18.3941441,32.8738318 C18.3205706,33.240988 18.5412913,33.5714286 18.9091592,33.6815754 C19.277027,33.7550067 19.6081081,33.534713 19.7184685,33.2042724 C20.7484985,28.9085447 23.5075075,25.200267 27.3701201,22.9973298 C31.3430931,20.7209613 36.0885886,20.2069426 40.4294294,21.6021362 C40.7972973,21.712283 41.1651652,21.4919893 41.2387387,21.1615487 C41.3490991,20.8311081 41.1651652,20.4639519 40.8340841,20.3538051 C36.0885886,18.811749 30.9384384,19.3624833 26.6711712,21.8591455 Z M24.3168168,17.746996 L23.0660661,19.7296395 L22.2567568,17.5267023 L19.9391892,16.975968 L21.7785285,15.5073431 L21.6313814,13.1575434 L23.5810811,14.4793057 L25.7515015,13.5981308 L25.1261261,15.8744993 L26.6343844,17.6735648 L24.3168168,17.746996 Z M48.2282282,59.1255007 L46.9774775,61.1081442 L46.1681682,58.9052069 L43.8873874,58.317757 L45.7267267,56.8491322 L45.5795796,54.4993324 L47.5292793,55.8210948 L49.6996997,54.9399199 L49.0743243,57.2162884 L50.5825826,59.0153538 L48.2282282,59.1255007 Z M15.3408408,26.9993324 L14.0900901,28.981976 L13.2807808,26.7790387 L11,26.1915888 L12.8393393,24.722964 L12.6921922,22.3731642 L14.6418919,23.6949266 L16.8123123,22.8137517 L16.1869369,25.0901202 L17.6951952,26.8891856 L15.3408408,26.9993324 Z M36.1621622,63.0173565 L34.9114114,65 L34.1021021,62.7970628 L31.8213213,62.2096128 L33.6606607,60.740988 L33.5135135,58.3911883 L35.4632132,59.7129506 L37.6336336,58.8317757 L37.0082583,61.1081442 L38.5165165,62.9072096 L36.1621622,63.0173565 Z M36.8243243,14.6261682 L35.5735736,16.6088117 L34.7642643,14.4058745 L32.4834835,13.8184246 L34.3228228,12.3497997 L34.1756757,10 L36.1253754,11.3217623 L38.3325826,10.4773031 L37.7072072,12.7536716 L39.2154655,14.552737 L36.8243243,14.6261682 Z M57.6456456,50.6441923 L56.3948949,52.6268358 L55.5855856,50.4238985 L53.3048048,49.8364486 L55.1441441,48.3678238 L54.996997,46.018024 L56.9466967,47.3397864 L59.1171171,46.4586115 L58.4917417,48.73498 L60,50.5340454 L57.6456456,50.6441923 Z" id="Shape"></path>
                                            <path d="M19.7692671,47.561596 L23.5740851,53.6264339 C23.684905,53.7780549 23.684905,53.9296758 23.6479651,54.119202 C23.6110251,54.2708229 23.5002051,54.4224439 23.3893852,54.5361596 L23.3524452,54.5361596 C23.2046853,54.6119701 23.0569254,54.6498753 22.9091655,54.6119701 C22.7614055,54.5740648 22.6136456,54.4982544 22.5397657,54.3466334 L18.7349477,48.2817955 L12.8245508,52.0723192 C12.6767909,52.1481297 12.5290309,52.1860349 12.381271,52.1481297 C12.2335111,52.1102244 12.0857512,51.9965087 12.0118712,51.8448878 C11.9010513,51.6932668 11.9010513,51.5416459 11.9379912,51.3521197 C11.9749312,51.2004988 12.0857512,51.0488778 12.2335111,50.9730673 L18.070028,47.1446384 L16.0013891,43.8468828 L11.9379912,46.272818 C11.7902313,46.3486284 11.6424714,46.3865337 11.4577715,46.3486284 C11.3100116,46.3107232 11.1622517,46.1970075 11.0883717,46.0453865 C11.0144917,45.8937656 10.9775518,45.7421446 11.0144917,45.5526185 C11.0514317,45.3630923 11.1622517,45.2493766 11.3100116,45.1735661 L15.3364695,42.7855362 L14.0066302,40.6628429 C13.8958102,40.5112219 13.8958102,40.359601 13.8958102,40.20798 C13.9327502,40.0563591 14.0066302,39.9047382 14.1543901,39.7910224 C14.30215,39.6773067 14.4499099,39.6773067 14.6346098,39.715212 C14.7823697,39.7531172 14.9301297,39.8668329 15.0409496,39.9805486 L16.4077289,42.1411471 L19.5845672,40.2458853 C19.7323271,40.1700748 19.8800871,40.1321696 20.064787,40.1700748 C20.2494869,40.20798 20.3603068,40.3216958 20.4341868,40.4733167 C20.5080667,40.6249377 20.5450067,40.7765586 20.5080667,40.9660848 C20.4711267,41.1177057 20.3603068,41.2693267 20.2125469,41.3451372 L17.1095885,43.2024938 L19.1412874,46.4623441 L24.8669844,42.7476309 C24.9778044,42.6339152 25.1625043,42.59601 25.3102642,42.6339152 C25.4949641,42.6718204 25.605784,42.7855362 25.716604,42.9371571 C25.8274239,43.0887781 25.8274239,43.240399 25.7904839,43.4299252 C25.753544,43.5815461 25.642724,43.7331671 25.5319041,43.8468828 L19.7692671,47.561596 Z M16.8140687,50.6319202 C16.8140687,50.442394 16.8879486,50.2907731 17.0357086,50.1770574 C17.1465285,50.0633416 17.2942884,50.0254364 17.4789883,50.0254364 C17.6636882,50.0254364 17.7745082,50.1012469 17.9222681,50.2528678 C18.033088,50.4044888 18.106968,50.5561097 18.070028,50.7077307 L17.7006282,56.4314214 C17.6636882,56.6588529 17.5898083,56.8483791 17.4051084,56.9241895 C17.2942884,57 17.1834685,57 17.0357086,57 C16.8510087,57 16.7401887,56.9241895 16.6293688,56.7725686 C16.5185488,56.6588529 16.4816088,56.5072319 16.4816088,56.3177057 L16.8140687,50.6319202 Z M28.7087424,48.8124688 C28.8934423,48.8124688 29.0412022,48.8882793 29.1520222,49.001995 C29.2628421,49.1157107 29.3367221,49.2673317 29.3367221,49.4568579 C29.3367221,49.6842893 29.2259021,49.8738155 29.0412022,50.0254364 C28.9303823,50.1012469 28.8565023,50.1012469 28.7456824,50.1012469 L23.4263252,50.1012469 C23.2416253,50.1012469 23.0938654,50.0254364 22.9830454,49.9117207 C22.8722255,49.798005 22.7983455,49.646384 22.7983455,49.4568579 C22.7983455,49.2673317 22.8722255,49.1157107 22.9830454,49.001995 C23.0938654,48.8882793 23.2416253,48.8124688 23.4263252,48.8124688 L28.7087424,48.8124688 Z M33.7695197,48.0922693 C33.6217598,48.1680798 33.4370599,48.1680798 33.2893,48.0922693 C33.1415401,48.0164589 33.0307201,47.9027431 32.9937801,47.713217 L31.2206611,42.4064838 L29.521422,43.5436409 L29.484482,43.5436409 C29.3367221,43.6194514 29.1889621,43.6573566 29.0412022,43.6194514 C28.8934423,43.5815461 28.7826224,43.5057357 28.6718024,43.3541147 C28.5609825,43.2024938 28.5240425,43.0508728 28.5609825,42.8992519 C28.5979225,42.7097257 28.6718024,42.59601 28.8195623,42.4822943 L30.7773813,41.155611 L28.4132226,34.1810474 L26.3445836,35.394015 C26.1968237,35.4698254 26.0490638,35.5077307 25.8643639,35.4698254 C25.716604,35.4319202 25.5688441,35.3182045 25.4949641,35.1665835 C25.4210841,35.0149626 25.3841442,34.8254364 25.4580241,34.6738155 C25.4949641,34.5221945 25.605784,34.3705736 25.753544,34.2947631 L36.5400183,28.1541147 C36.6877782,28.0783042 36.8355381,28.040399 37.020238,28.0783042 C37.1679979,28.1162095 37.3157579,28.2299252 37.3896378,28.3815461 C37.4635178,28.5331671 37.5004578,28.684788 37.4635178,28.836409 C37.4265778,28.9880299 37.3157579,29.1017456 37.1679979,29.2154613 L29.521422,33.5745636 L31.8486407,40.4733167 L37.7220976,36.5311721 L34.8777191,31.6793017 C34.7668992,31.5276808 34.7668992,31.3760599 34.8038392,31.1865337 C34.8407792,31.0349127 34.9515991,30.8832918 35.099359,30.8074813 C35.2471189,30.7316708 35.3948789,30.6937656 35.5795788,30.7316708 C35.7273387,30.7695761 35.8750986,30.8832918 35.9489786,31.0349127 L38.7564171,35.8488778 L41.0836359,34.2568579 C41.2313958,34.1431421 41.4160957,34.1431421 41.5638556,34.1810474 C41.7116155,34.2189526 41.8593755,34.2947631 41.9701954,34.446384 C42.0810153,34.598005 42.0810153,34.7496259 42.0440754,34.9391521 C42.0071354,35.0907731 41.8963154,35.242394 41.7854955,35.3561097 L39.4213367,36.9481297 L42.3395952,41.9137157 C42.4504151,42.0653367 42.4504151,42.2169576 42.4134752,42.3685786 C42.3765352,42.5201995 42.2657152,42.6718204 42.1179553,42.7855362 C41.9701954,42.8613466 41.8224355,42.8992519 41.6377356,42.8613466 C41.4899757,42.8234414 41.3422157,42.7097257 41.2683358,42.5581047 L38.3870173,37.6304239 L32.2919205,41.6862843 L34.1758595,47.2962594 C34.2127995,47.4478803 34.2127995,47.5995012 34.1758595,47.713217 C34.1389195,47.8648379 34.0280996,47.9785536 33.9172797,48.0543641 C33.8433997,48.0922693 33.8064597,48.0922693 33.7695197,48.0922693 Z M41.2313958,27.9266833 C41.0836359,28.0024938 40.898936,28.0024938 40.751176,27.9266833 C40.6034161,27.8508728 40.4925962,27.7750623 40.4187162,27.5855362 C40.3448363,27.4339152 40.3448363,27.244389 40.4187162,27.0927681 C40.4556562,26.9411471 40.5664761,26.8274314 40.751176,26.7516209 L41.8963154,26.1830424 C41.7116155,25.7281796 41.5638556,25.3870324 41.4530357,25.0837905 C41.3422157,24.7805486 41.2683358,24.6289277 41.2683358,24.5910224 C41.1944558,24.4394015 41.1944558,24.2498753 41.2683358,24.0982544 C41.3422157,23.9466334 41.4530357,23.8329177 41.6007956,23.7571072 C41.7485555,23.6812968 41.9332554,23.6812968 42.0810153,23.7571072 C42.2287753,23.8329177 42.3395952,23.9466334 42.4134752,24.0982544 C42.4134752,24.1361596 42.4873551,24.2498753 42.5981751,24.5531172 C42.708995,24.8184539 42.8567549,25.1975062 43.0414548,25.6523691 L44.9992738,24.7426434 L44.703754,23.8708229 C44.666814,23.6812968 44.666814,23.5296758 44.7406939,23.3780549 C44.8145739,23.2264339 44.9253938,23.1127182 45.1100937,23.074813 C45.2578537,22.9990025 45.4425536,22.9990025 45.5903135,23.074813 C45.7380734,23.1506234 45.8488934,23.2643392 45.8858333,23.4538653 L46.1444132,24.2119701 L46.6246329,23.9466334 C46.7723929,23.8708229 46.9570928,23.8708229 47.1048527,23.9466334 C47.2526126,24.0224439 47.4003725,24.0982544 47.4742525,24.2877805 C47.5481325,24.4394015 47.5481325,24.5910224 47.4742525,24.7426434 C47.4373125,24.8942643 47.3264926,25.00798 47.1787327,25.0837905 L47.1417927,25.1216958 L46.513813,25.4249377 L49.6906513,35.0528678 L50.244751,34.9391521 C50.4294509,34.9012469 50.6141508,34.8254364 50.7988507,34.7875312 C50.9835506,34.7496259 51.1313106,34.6738155 51.2790705,34.6359102 C51.4268304,34.598005 51.5376504,34.5600998 51.6484703,34.5221945 C51.7962302,34.446384 51.9809301,34.446384 52.12869,34.5221945 C52.27645,34.598005 52.3872699,34.7117207 52.4611499,34.9012469 C52.4980898,35.0528678 52.4980898,35.2044888 52.4611499,35.3182045 C52.4242099,35.4698254 52.3133899,35.5835411 52.20257,35.6593516 L52.0917501,35.6972569 C52.0548101,35.6972569 51.9809301,35.7351621 51.8331702,35.7730673 C51.7223503,35.8109726 51.5376504,35.886783 51.3898904,35.9246883 C51.2051905,35.9625935 51.0204906,36.038404 50.7988507,36.1142145 C50.5772109,36.1900249 50.355571,36.2279302 50.1339311,36.2658354 L50.5402709,37.4408978 C50.5772109,37.5925187 50.5772109,37.7441397 50.5033309,37.8957606 C50.4663909,38.0473815 50.355571,38.1610973 50.244751,38.1990025 C50.2078111,38.2369077 50.1339311,38.2369077 50.1339311,38.2369077 C49.9861712,38.3127182 49.8014713,38.3127182 49.6537113,38.2369077 C49.5059514,38.1610973 49.3951315,38.0473815 49.3581915,37.8578554 L48.8779718,36.3795511 C47.6220124,36.3037406 46.550753,35.6214464 45.6641935,34.3705736 C45.4794936,34.1052369 45.2209137,33.6882793 44.9623338,33.157606 C44.703754,32.6269327 44.4082341,32.0204489 44.1127143,31.3760599 C43.8171944,30.7316708 43.5216746,30.0493766 43.2261547,29.3670823 C42.9306349,28.684788 42.672055,28.0024938 42.4134752,27.39601 L41.2313958,27.9266833 Z M43.4477946,26.8653367 C43.7063745,27.4718204 43.9649543,28.1162095 44.2604742,28.7985037 C44.555994,29.480798 44.8515139,30.1630923 45.1100937,30.7695761 C45.4056136,31.4139651 45.6641935,31.9825436 45.9227733,32.4753117 C46.1813532,32.9680798 46.4029931,33.3850374 46.550753,33.6124688 C46.8832128,34.0673317 47.1787327,34.4084788 47.4742525,34.598005 C47.7697723,34.7875312 48.0283522,34.9391521 48.2869321,35.0149626 L45.2947936,25.9177057 L43.4477946,26.8653367 Z M57.5958072,23.3401496 C57.7435671,23.4159601 57.817447,23.567581 57.854387,23.719202 C57.891327,23.8708229 57.854387,24.0603491 57.7805071,24.2119701 C57.7435671,24.2877805 57.6696871,24.363591 57.5588672,24.4394015 C57.4480472,24.4773067 57.3741673,24.515212 57.2633473,24.515212 C57.1525274,24.515212 57.0417075,24.4773067 56.9308875,24.4014963 L55.6749282,23.6054863 C55.6749282,23.6433915 55.6379882,23.6433915 55.6379882,23.6812968 C55.6379882,23.719202 55.5271682,23.8329177 55.3055284,24.0982544 C55.0838885,24.363591 54.8253086,24.6668329 54.4928488,25.0458853 C54.160389,25.4249377 53.7909892,25.80399 53.3846494,26.2209476 C52.9783096,26.6379052 52.5350298,27.0169576 52.0917501,27.3581047 C51.9070502,27.5097257 51.6854103,27.6613466 51.5007104,27.7750623 C50.9466107,28.1162095 50.5033309,28.2678304 50.0969911,28.2299252 C49.6906513,28.2299252 49.3581915,28.1541147 49.1365516,28.040399 C48.7302118,27.8508728 48.434692,27.5476309 48.2130521,27.1306733 C47.9914122,26.7137157 47.8805923,26.2209476 47.8805923,25.6902743 C47.8805923,25.1216958 47.9175323,24.4773067 48.0283522,23.7571072 C48.1391721,23.0369077 48.2869321,22.3925187 48.434692,21.7481297 C48.5824519,21.1416459 48.7302118,20.6109726 48.8779718,20.1561097 C49.0257317,19.7391521 49.0996116,19.4738155 49.0996116,19.4359102 C49.1734916,19.246384 49.2473716,19.1326683 49.3951315,19.0568579 C49.5428914,18.9810474 49.6906513,18.9810474 49.8753512,19.0568579 C50.0231112,19.1326683 50.1708711,19.246384 50.244751,19.3600998 C50.318631,19.5117207 50.318631,19.6633416 50.281691,19.8528678 C50.281691,19.8528678 50.244751,19.9665835 50.1708711,20.1561097 C50.0969911,20.3456359 50.0231112,20.6109726 49.9492312,20.9142145 C49.8753512,21.2174564 49.7645313,21.5965087 49.6537113,21.9755611 C49.5428914,22.3925187 49.4690114,22.7715711 49.3951315,23.2264339 L49.1734916,24.4773067 C49.0996116,24.8942643 49.0996116,25.2733167 49.0996116,25.6144638 C49.0996116,25.9177057 49.1734916,26.1830424 49.2473716,26.4104738 C49.3581915,26.6379052 49.4690114,26.7895262 49.6167714,26.8653367 C50.0231112,27.0548628 50.5772109,26.8653367 51.3160105,26.3346633 C51.6854103,26.0314214 52.0548101,25.7281796 52.4242099,25.3491272 C52.7936097,24.9700748 53.1260695,24.6289277 53.4215894,24.2877805 C53.7171092,23.9466334 53.9756891,23.6812968 54.197329,23.4159601 C54.4189688,23.1506234 54.5297888,22.9990025 54.6036687,22.923192 L52.27645,21.4069825 C52.12869,21.2932668 52.0178701,21.1795511 51.9809301,20.9900249 C51.9439901,20.838404 51.9809301,20.686783 52.0548101,20.5351621 C52.16563,20.3835411 52.27645,20.2698254 52.4611499,20.2319202 C52.6089098,20.194015 52.7936097,20.2319202 52.9413696,20.3077307 L57.5958072,23.3401496 Z M58.9625864,26.8274314 C59.2211663,27.244389 59.4797462,27.6613466 59.701386,28.1162095 C59.9230259,28.5710723 60.1446658,28.9880299 60.3293657,29.3670823 C60.5140656,29.7461347 60.6618255,30.0872818 60.7726455,30.3526185 C60.8834654,30.6179551 60.9573454,30.7695761 60.9573454,30.7695761 C60.9942854,30.921197 61.0312253,31.072818 60.9573454,31.2244389 C60.9204054,31.3760599 60.8095855,31.4897756 60.6987655,31.565586 L60.6248856,31.6034913 C60.4401857,31.6793017 60.2185458,31.6413965 60.0338459,31.5276808 L54.3820289,35.2044888 L54.3450889,35.242394 C54.123449,35.394015 53.9018091,35.3561097 53.6801692,35.2044888 C53.6801692,35.2044888 53.6432292,35.2044888 53.6432292,35.1665835 L53.4954693,35.0528678 L50.5033309,30.5421446 C50.392511,30.3905237 50.392511,30.2389027 50.392511,30.0872818 C50.4294509,29.9356608 50.5033309,29.7840399 50.6510908,29.6703242 C50.7619108,29.5945137 50.9096707,29.5566085 51.0574306,29.5566085 C51.2051905,29.5945137 51.3529505,29.6703242 51.4637704,29.7840399 L52.0917501,29.1396509 C52.3503299,28.8743142 52.6458498,28.6089776 52.9783096,28.3057357 C53.2738294,28.0024938 53.6062893,27.6992519 53.9387491,27.4339152 C54.2712089,27.1306733 54.5667288,26.9032419 54.8253086,26.6758105 C55.4163483,26.2209476 55.8965681,25.8798005 56.2659679,25.7281796 C56.6723076,25.5386534 57.0417075,25.5007481 57.3741673,25.5386534 C57.7435671,25.6144638 58.0390869,25.7660848 58.2607268,26.0314214 C58.5562467,26.2588529 58.7778865,26.5241895 58.9625864,26.8274314 Z M55.6010482,27.6234414 C55.3424683,27.8508728 55.0100085,28.1162095 54.6775487,28.4573566 C54.3450889,28.7985037 53.9756891,29.1017456 53.6801692,29.4049875 C53.3477094,29.7082294 53.0521896,30.0114713 52.7936097,30.276808 L52.27645,30.8074813 L54.2342689,33.7640898 L59.4797462,30.3526185 L58.8148265,28.9880299 C58.5562467,28.4573566 58.2607268,27.9645885 57.965207,27.5097257 C57.6696871,27.0548628 57.4111073,26.7895262 57.2264074,26.7516209 C56.9308875,26.7137157 56.3767878,27.0169576 55.6010482,27.6234414 Z" id="Shape"></path>
                                        </g>
                                    </g>
                                </g>
                            </g>
                        </svg>